<?xml version="1.0" encoding="utf-8"?>
<!-- Generator: Adobe Illustrator 16.0.0, SVG Export Plug-In . SVG Version: 6.00 Build 0)  -->
<!DOCTYPE svg PUBLIC "-//W3C//DTD SVG 1.1//EN" "http://www.w3.org/Graphics/SVG/1.1/DTD/svg11.dtd">
<svg version="1.1" xmlns="http://www.w3.org/2000/svg" xmlns:xlink="http://www.w3.org/1999/xlink" x="0px" y="0px" width="150px"
	 height="74.1px" viewBox="0 0 150 74.1" enable-background="new 0 0 150 74.1" xml:space="preserve">
<pattern  x="-175" y="-86.45" width="250" height="250" patternUnits="userSpaceOnUse" id="New_Pattern_3" viewBox="0 -250 250 250" overflow="visible">
	<g>
		<polygon fill="none" points="0,-250 250,-250 250,0 0,0 		"/>
		<polygon fill="#1C204C" points="250,0 0,0 0,-250 250,-250 		"/>
		<path fill="#60D8A1" d="M199.344-115.549l18.341,33.881l-38.513-1.058L199.344-115.549z M211.884-85.233l-12.727-23.511
			L185.16-85.966L211.884-85.233z"/>
		<path fill="#F46060" d="M53.629-160.456l-1.85-1.85c-0.453-0.453-0.453-1.187,0-1.64l29.767-29.767
			c0.453-0.453,1.187-0.453,1.64,0l1.85,1.85c0.453,0.453,0.453,1.187,0,1.64l-29.768,29.767
			C54.816-160.003,54.082-160.003,53.629-160.456z"/>
		<path fill="#B858C6" d="M138.867-186.643l-1.85-1.85c-0.453-0.453-0.453-1.187,0-1.64l11.539-11.539
			c0.453-0.453,1.187-0.453,1.64,0l1.85,1.85c0.453,0.453,0.453,1.187,0,1.64l-11.539,11.539
			C140.054-186.19,139.32-186.19,138.867-186.643z"/>
		<path fill="#60D8A1" d="M158.958-206.733l-1.85-1.85c-0.453-0.453-0.453-1.187,0-1.64l4.863-4.864c0.453-0.453,1.187-0.453,1.64,0
			l1.85,1.85c0.453,0.453,0.453,1.187,0,1.64l-4.863,4.863C160.145-206.28,159.41-206.28,158.958-206.733z"/>
		<path fill="#F46060" d="M8.699-50.827l-1.85-1.85c-0.453-0.453-0.453-1.187,0-1.64l29.768-29.768c0.453-0.453,1.187-0.453,1.64,0
			l1.85,1.85c0.453,0.453,0.453,1.187,0,1.64L10.339-50.827C9.886-50.374,9.152-50.374,8.699-50.827z"/>
		<path fill="#FFBC36" d="M179.226-186.336l-1.85-1.85c-0.453-0.453-0.453-1.188,0-1.64l38.49-38.49c0.453-0.453,1.187-0.453,1.64,0
			l1.85,1.85c0.453,0.453,0.453,1.187,0,1.64l-38.489,38.49C180.413-185.883,179.679-185.883,179.226-186.336z"/>
		<path fill="#F46060" d="M228.242-235.352l-1.85-1.85c-0.453-0.453-0.453-1.187,0-1.64l7.491-7.491c0.453-0.453,1.187-0.453,1.64,0
			l1.85,1.85c0.453,0.453,0.453,1.187,0,1.64l-7.491,7.491C229.429-234.899,228.695-234.899,228.242-235.352z"/>
		<path fill="#F46060" d="M110.497-52.752l-1.85-1.85c-0.453-0.453-0.453-1.187,0-1.64l29.767-29.767
			c0.453-0.453,1.187-0.453,1.64,0l1.85,1.85c0.453,0.453,0.453,1.187,0,1.64l-29.767,29.767
			C111.684-52.299,110.95-52.299,110.497-52.752z"/>
		<g>
			<path fill="#60D8A1" d="M182.759-14.754l-1.85-1.85c-0.453-0.453-0.453-1.187,0-1.64l29.768-29.768
				c0.453-0.453,1.187-0.453,1.64,0l1.85,1.85c0.453,0.453,0.453,1.187,0,1.64l-29.768,29.768
				C183.946-14.302,183.211-14.302,182.759-14.754z"/>
			<path fill="#60D8A1" d="M223.067-55.063l-1.85-1.85c-0.453-0.453-0.453-1.187,0-1.64l4.607-4.606c0.453-0.453,1.187-0.453,1.64,0
				l1.85,1.85c0.453,0.453,0.453,1.187,0,1.64l-4.606,4.607C224.254-54.61,223.52-54.61,223.067-55.063z"/>
		</g>
		<path fill="#B858C6" d="M127.763-234.13l-1.85-1.85c-0.453-0.453-0.453-1.187,0-1.64l4.607-4.606c0.453-0.453,1.187-0.453,1.64,0
			l1.85,1.85c0.453,0.453,0.453,1.187,0,1.64l-4.607,4.606C128.95-233.677,128.216-233.677,127.763-234.13z"/>
		<path fill="#B858C6" d="M3.664-8.935l-1.85-1.85c-0.453-0.453-0.453-1.187,0-1.64l9.192-9.192c0.453-0.453,1.187-0.453,1.64,0
			l1.85,1.85c0.453,0.453,0.453,1.187,0,1.64L5.304-8.935C4.851-8.482,4.117-8.482,3.664-8.935z"/>
		<path fill="#FFBC36" d="M5.525-236.758l-1.85-1.85c-0.453-0.453-0.453-1.187,0-1.64l7.788-7.788c0.453-0.453,1.187-0.453,1.64,0
			l1.85,1.85c0.453,0.453,0.453,1.187,0,1.64l-7.788,7.788C6.712-236.305,5.978-236.305,5.525-236.758z"/>
		<path fill="#B858C6" d="M9.608-226.925l-1.85-1.85c-0.453-0.453-0.453-1.187,0-1.64l7.788-7.788c0.453-0.453,1.187-0.453,1.64,0
			l1.85,1.85c0.453,0.453,0.453,1.187,0,1.64l-7.788,7.788C10.795-226.472,10.061-226.472,9.608-226.925z"/>
		<path fill="#B858C6" d="M215.89-99.864l-1.85-1.85c-0.453-0.453-0.453-1.187,0-1.64l29.767-29.768c0.453-0.453,1.187-0.453,1.64,0
			l1.85,1.85c0.453,0.453,0.453,1.187,0,1.64L217.53-99.864C217.077-99.412,216.343-99.412,215.89-99.864z"/>
		<path fill="#B858C6" d="M80.551-223.606l-1.85-1.85c-0.453-0.453-0.453-1.187,0-1.64l17.451-17.451
			c0.453-0.453,1.187-0.453,1.64,0l1.85,1.85c0.453,0.453,0.453,1.187,0,1.64l-17.451,17.451
			C81.738-223.154,81.004-223.154,80.551-223.606z"/>
		<path fill="#B858C6" d="M143.52-164.897l-1.85,1.85c-0.453,0.453-1.187,0.453-1.64,0l-18.335-18.335
			c-0.453-0.453-0.453-1.187,0-1.64l1.85-1.85c0.453-0.453,1.187-0.453,1.64,0l18.335,18.335
			C143.973-166.084,143.973-165.351,143.52-164.897z"/>
		<path fill="#F46060" d="M156.442-40.72l-1.85,1.85c-0.453,0.453-1.187,0.453-1.64,0L142.074-49.75
			c-0.453-0.453-0.453-1.187,0-1.64l1.85-1.85c0.453-0.453,1.187-0.453,1.64,0l10.879,10.879
			C156.896-41.907,156.896-41.173,156.442-40.72z"/>
		<path fill="#60D8A1" d="M56.351-129.858l-1.85,1.85c-0.453,0.453-1.187,0.453-1.64,0l-22.727-22.727
			c-0.453-0.453-0.453-1.187,0-1.64l1.85-1.85c0.453-0.453,1.187-0.453,1.64,0l22.727,22.727
			C56.804-131.045,56.804-130.311,56.351-129.858z"/>
		<path fill="#F46060" d="M163.614-140.815l-1.85-1.85c-0.453-0.453-0.453-1.187,0-1.64l12.823-12.822
			c0.453-0.453,1.187-0.453,1.64,0l1.85,1.85c0.453,0.453,0.453,1.187,0,1.64l-12.823,12.822
			C164.801-140.362,164.067-140.362,163.614-140.815z"/>
		<path fill="#60D8A1" d="M184.667-161.868l-1.85-1.85c-0.453-0.453-0.453-1.187,0-1.64l5.12-5.12c0.453-0.453,1.187-0.453,1.64,0
			l1.85,1.85c0.453,0.453,0.453,1.187,0,1.64l-5.12,5.12C185.854-161.415,185.12-161.415,184.667-161.868z"/>
		<path fill="#60D8A1" d="M164.881-164.246l-1.85,1.85c-0.453,0.453-1.187,0.453-1.64,0l-12.185-12.186
			c-0.453-0.453-0.453-1.187,0-1.64l1.85-1.85c0.453-0.453,1.187-0.453,1.64,0l12.185,12.186
			C165.333-165.433,165.333-164.698,164.881-164.246z"/>
		<path fill="#FFBC36" d="M78.476-19.818l-1.85-1.85c-0.453-0.453-0.453-1.187,0-1.64L88.8-35.481c0.453-0.453,1.187-0.453,1.64,0
			l1.85,1.85c0.453,0.453,0.453,1.187,0,1.64L80.116-19.818C79.663-19.365,78.929-19.365,78.476-19.818z"/>
		<path fill="#F46060" d="M50.035-92.162l-1.85-1.85c-0.453-0.453-0.453-1.187,0-1.64l12.823-12.822c0.453-0.453,1.187-0.453,1.64,0
			l1.85,1.85c0.453,0.453,0.453,1.187,0,1.64L51.674-92.162C51.222-91.709,50.487-91.709,50.035-92.162z"/>
		<path fill="#FFBC36" d="M75.181-117.309l-1.85-1.85c-0.453-0.453-0.453-1.187,0-1.64l4.607-4.606c0.453-0.453,1.187-0.453,1.64,0
			l1.85,1.85c0.453,0.453,0.453,1.187,0,1.64l-4.606,4.607C76.368-116.856,75.634-116.856,75.181-117.309z"/>
		<polygon fill="#F46060" points="167.458,-170.87 159.47,-178.858 167.458,-186.846 175.446,-178.858 		"/>
		<polygon fill="#FFBC36" points="91.873,-208.449 84.38,-200.957 76.888,-208.449 84.38,-215.942 		"/>
		<polygon fill="#B858C6" points="202.977,-182.554 195.485,-175.061 187.992,-182.554 195.485,-190.046 		"/>
		<g>
			<polygon fill="#60D8A1" points="29.463,-201.228 23.525,-195.29 17.587,-201.228 23.525,-207.166 			"/>
			<polygon fill="#60D8A1" points="11.454,-188.024 4.179,-195.299 11.454,-202.574 18.729,-195.299 			"/>
		</g>
		<polygon fill="#B858C6" points="157.267,-57.503 146.34,-68.429 157.267,-79.354 168.192,-68.429 		"/>
		<polygon fill="#F46060" points="95.681,-83.38 87.045,-92.016 95.681,-100.652 104.317,-92.016 		"/>
		<polygon fill="#F46060" points="162.736,-11.098 154.271,-19.563 162.736,-28.028 171.201,-19.563 		"/>
		<g>
			<path fill="#F46060" d="M139.153-113.074c3.102,3.85,2.868,9.499-0.708,13.074c-3.575,3.575-9.224,3.81-13.073,0.708
				l-4.136,4.136c6.141,5.37,15.478,5.132,21.331-0.721s6.091-15.19,0.722-21.332L139.153-113.074z"/>
			<path fill="#F46060" d="M127.766-103.185c2.07,2.069,5.425,2.069,7.495,0c2.07-2.07,2.07-5.425,0-7.495
				c-2.069-2.07-5.425-2.07-7.495,0C125.696-108.61,125.696-105.255,127.766-103.185z"/>
		</g>
		<g>
			<path fill="#FFBC36" d="M26.145-132.111c-3.837,3.092-9.468,2.858-13.032-0.705c-3.563-3.564-3.797-9.194-0.705-13.032
				l-4.123-4.123c-5.352,6.121-5.115,15.429,0.719,21.263c5.834,5.834,15.142,6.071,21.263,0.719L26.145-132.111z"/>
			<path fill="#B858C6" d="M16.289-143.462c-2.063,2.063-2.063,5.407,0,7.47s5.407,2.063,7.47,0s2.063-5.408,0-7.47
				C21.696-145.525,18.352-145.525,16.289-143.462z"/>
		</g>
		<g>
			<path fill="#60D8A1" d="M224.547-161.779c3.072-2.475,7.579-2.288,10.431,0.564s3.04,7.359,0.564,10.431l3.3,3.3
				c4.285-4.899,4.095-12.35-0.575-17.02c-4.67-4.67-12.12-4.86-17.02-0.575L224.547-161.779z"/>
			<path fill="#60D8A1" d="M232.437-152.693c1.651-1.651,1.651-4.329,0-5.98s-4.329-1.651-5.979,0c-1.651,1.651-1.651,4.329,0,5.98
				C228.108-151.042,230.786-151.042,232.437-152.693z"/>
		</g>
		<path fill="#60D8A1" d="M142.577-2.665c-0.991-7.531-7.43-13.347-15.232-13.347c-7.802,0-14.242,5.815-15.232,13.347H142.577z"/>
		<path fill="#60D8A1" d="M115.911-208.172c0,4.802-3.893,8.694-8.694,8.694s-8.694-3.893-8.694-8.694s3.893-8.694,8.694-8.694
			S115.911-212.974,115.911-208.172z M111.886-208.172c0-2.579-2.091-4.669-4.669-4.669s-4.669,2.091-4.669,4.669
			s2.091,4.669,4.669,4.669S111.886-205.594,111.886-208.172z"/>
		<g>
			<path fill="#F46060" d="M30.394-12.815l-1.685-1.686c-0.439-0.439-0.439-1.151,0-1.59l29.816-29.816
				c0.439-0.439,1.151-0.439,1.59,0l1.686,1.686c0.439,0.439,0.439,1.151,0,1.59L31.984-12.815
				C31.545-12.376,30.833-12.376,30.394-12.815z"/>
			<path fill="#F46060" d="M57.084-26.8c0,6.177-5.007,11.184-11.184,11.184c-6.176,0-11.184-5.007-11.184-11.184
				c0-6.176,5.007-11.184,11.184-11.184C52.078-37.984,57.084-32.977,57.084-26.8z M54.018-26.8c0-4.483-3.634-8.117-8.117-8.117
				c-4.483,0-8.117,3.634-8.117,8.117c0,4.483,3.634,8.117,8.117,8.117C50.384-18.683,54.018-22.317,54.018-26.8z"/>
			<path fill="#F46060" d="M68.525-8.038c0,3.512-2.847,6.358-6.358,6.358s-6.358-2.847-6.358-6.358s2.847-6.358,6.358-6.358
				S68.525-11.55,68.525-8.038z M65.582-8.038c0-1.886-1.529-3.415-3.415-3.415c-1.886,0-3.415,1.529-3.415,3.415
				s1.529,3.415,3.415,3.415C64.053-4.624,65.582-6.152,65.582-8.038z"/>
		</g>
		<g>
			<polygon fill="#B858C6" points="56.176,-86.295 64.407,-85.473 71.841,-69.523 61.401,-55.358 53.169,-56.18 63.609,-70.345 			
				"/>
			<polygon fill="#FFBC36" points="96.049,-55.233 92.824,-62.851 75.387,-65.221 64.954,-51.051 68.179,-43.433 78.612,-57.604 			
				"/>
			<polygon fill="#60D8A1" points="77.137,-94.548 71.702,-88.312 77.208,-71.599 94.517,-68.426 99.952,-74.663 82.644,-77.835 			
				"/>
		</g>
		<g>
			<polygon fill="#F46060" points="51.5,-233.067 51.5,-224.725 36.24,-215.668 20.98,-224.725 20.98,-233.067 36.24,-224.01 			"/>
			<polygon fill="#FFBC36" points="46.746,-188.893 39.431,-192.903 38.825,-210.637 54.103,-219.664 61.417,-215.654 
				46.14,-206.627 			"/>
		</g>
		<g>
			<polygon fill="#F46060" points="211.962,-156.124 213.984,-148.605 202.425,-136.746 186.478,-141.211 184.457,-148.729 
				200.404,-144.264 			"/>
			<polygon fill="#FFBC36" points="218.381,-115.159 210.817,-117 205.974,-132.837 217.556,-144.675 225.12,-142.833 
				213.538,-130.996 			"/>
		</g>
		<g>
			<path fill="#FFBC36" d="M112.75-166.381c-1.138,1.138-2.983,1.138-4.121,0c-1.138-1.138-1.138-2.983,0-4.121
				c1.138-1.138,2.983-1.138,4.121,0C113.887-169.364,113.887-167.519,112.75-166.381z"/>
			<path fill="#FFBC36" d="M120.703-158.428c-1.138,1.138-2.983,1.138-4.121,0c-1.138-1.138-1.138-2.982,0-4.121
				c1.138-1.138,2.983-1.138,4.121,0C121.84-161.411,121.84-159.566,120.703-158.428z"/>
			<path fill="#FFBC36" d="M128.655-150.475c-1.138,1.138-2.982,1.138-4.121,0c-1.138-1.138-1.138-2.982,0-4.121
				c1.138-1.138,2.983-1.138,4.121,0C129.793-153.458,129.793-151.613,128.655-150.475z"/>
			<path fill="#FFBC36" d="M136.608-142.522c-1.138,1.138-2.982,1.138-4.121,0c-1.138-1.138-1.138-2.982,0-4.121
				c1.138-1.138,2.983-1.138,4.121,0C137.747-145.504,137.747-143.66,136.608-142.522z"/>
			<path fill="#FFBC36" d="M144.562-134.569c-1.138,1.138-2.982,1.138-4.121,0c-1.138-1.138-1.138-2.982,0-4.121
				c1.138-1.138,2.983-1.138,4.121,0C145.7-137.551,145.7-135.707,144.562-134.569z"/>
			<path fill="#FFBC36" d="M160.468-118.663c-1.138,1.138-2.983,1.138-4.121,0c-1.138-1.138-1.138-2.983,0-4.121
				s2.983-1.138,4.121,0C161.606-121.646,161.606-119.8,160.468-118.663z"/>
		</g>
		<g>
			<path fill="#F46060" d="M105.759-16.26c1.138,1.138,1.138,2.982,0,4.121c-1.138,1.138-2.983,1.138-4.121,0
				c-1.138-1.138-1.138-2.983,0-4.121C102.776-17.398,104.621-17.398,105.759-16.26z"/>
			<path fill="#F46060" d="M113.712-24.213c1.138,1.138,1.138,2.983,0,4.121c-1.138,1.138-2.983,1.138-4.121,0
				c-1.138-1.138-1.138-2.983,0-4.121C110.729-25.351,112.574-25.351,113.712-24.213z"/>
			<path fill="#F46060" d="M121.665-32.166c1.138,1.138,1.138,2.983,0,4.121c-1.138,1.138-2.983,1.138-4.121,0
				c-1.138-1.138-1.138-2.983,0-4.121C118.682-33.304,120.527-33.304,121.665-32.166z"/>
			<path fill="#F46060" d="M129.618-40.119c1.138,1.138,1.138,2.983,0,4.121c-1.138,1.138-2.982,1.138-4.121,0
				c-1.138-1.138-1.138-2.983,0-4.121C126.635-41.257,128.48-41.257,129.618-40.119z"/>
		</g>
		<g>
			<path fill="#60D8A1" d="M211.005-178.515c1.138,1.138,1.138,2.982,0,4.121c-1.138,1.138-2.982,1.138-4.121,0
				c-1.138-1.138-1.138-2.983,0-4.121C208.022-179.653,209.867-179.653,211.005-178.515z"/>
			<path fill="#60D8A1" d="M218.958-186.468c1.138,1.138,1.138,2.982,0,4.121c-1.138,1.138-2.982,1.138-4.121,0
				c-1.138-1.138-1.138-2.983,0-4.121C215.976-187.606,217.82-187.606,218.958-186.468z"/>
			<path fill="#60D8A1" d="M234.864-202.374c1.138,1.138,1.138,2.982,0,4.121c-1.138,1.138-2.982,1.138-4.121,0
				c-1.138-1.138-1.138-2.983,0-4.121C231.882-203.512,233.727-203.512,234.864-202.374z"/>
		</g>
		<g>
			<path fill="#F46060" d="M230.822-20.058c1.138,1.138,1.138,2.982,0,4.121c-1.138,1.138-2.982,1.138-4.121,0
				c-1.138-1.138-1.138-2.983,0-4.121C227.84-21.196,229.685-21.196,230.822-20.058z"/>
			<path fill="#FFBC36" d="M27.613-33.878c1.138,1.138,1.138,2.983,0,4.121c-1.138,1.138-2.983,1.138-4.121,0
				c-1.138-1.138-1.138-2.983,0-4.121C24.63-35.016,26.475-35.016,27.613-33.878z"/>
			<path fill="#FFBC36" d="M242.963-32.199c1.138,1.138,1.138,2.983,0,4.121c-1.138,1.138-2.982,1.138-4.121,0
				c-1.138-1.138-1.138-2.983,0-4.121C239.98-33.337,241.825-33.337,242.963-32.199z"/>
		</g>
		<g>
			<path fill="#F46060" d="M15.117-163.116c1.138,1.138,1.138,2.983,0,4.121c-1.138,1.138-2.982,1.138-4.121,0
				c-1.138-1.138-1.138-2.983,0-4.121C12.134-164.254,13.979-164.254,15.117-163.116z"/>
			<path fill="#B858C6" d="M23.07-171.069c1.138,1.138,1.138,2.983,0,4.121c-1.138,1.138-2.982,1.138-4.121,0
				c-1.138-1.138-1.138-2.983,0-4.121C20.087-172.207,21.932-172.207,23.07-171.069z"/>
			<path fill="#FFBC36" d="M31.023-179.022c1.138,1.138,1.138,2.983,0,4.121c-1.138,1.138-2.982,1.138-4.121,0
				c-1.138-1.138-1.138-2.982,0-4.121C28.041-180.16,29.885-180.16,31.023-179.022z"/>
		</g>
		<g>
			<path fill="#B858C6" d="M232.309-87.609c1.138,1.138,1.138,2.983,0,4.121c-1.138,1.138-2.983,1.138-4.121,0s-1.138-2.983,0-4.121
				C229.326-88.748,231.171-88.748,232.309-87.609z"/>
			<path fill="#F46060" d="M240.262-95.563c1.138,1.138,1.138,2.983,0,4.121c-1.138,1.138-2.983,1.138-4.121,0s-1.138-2.983,0-4.121
				C237.279-96.701,239.124-96.701,240.262-95.563z"/>
		</g>
		<g>
			<path fill="#B858C6" d="M69.923-238.963c1.138,1.138,1.138,2.983,0,4.121c-1.138,1.138-2.983,1.138-4.121,0
				c-1.138-1.138-1.138-2.982,0-4.121C66.94-240.101,68.786-240.101,69.923-238.963z"/>
			<path fill="#60D8A1" d="M77.876-246.916c1.138,1.138,1.138,2.983,0,4.121c-1.138,1.138-2.983,1.138-4.121,0
				c-1.138-1.138-1.138-2.982,0-4.121C74.894-248.054,76.739-248.054,77.876-246.916z"/>
		</g>
		<path fill="#F46060" d="M200.473-225.441l-14.516,14.516L174-222.882l-2.539,2.539l-14.516-14.516l14.516-14.516l11.957,11.957
			l2.539-2.539L200.473-225.441z M193.672-225.441l-7.716-7.715l-2.539,2.539l-11.957-11.957l-7.715,7.716l7.715,7.715l2.539-2.538
			l11.957,11.957L193.672-225.441z"/>
		<polygon fill="#FFBC36" points="175.827,-234.451 171.577,-230.2 167.327,-234.451 171.577,-238.701 		"/>
		<g>
			<path fill="#FFBC36" d="M180.652-31.315l-15.041-15.041L178-58.745l-2.63-2.631l15.041-15.041l15.041,15.041l-12.389,12.39
				l2.63,2.63L180.652-31.315z M180.652-38.361l7.995-7.995l-2.63-2.631l12.389-12.389l-7.995-7.994l-7.994,7.994l2.63,2.63
				l-12.389,12.39L180.652-38.361z"/>
			<polygon fill="#60D8A1" points="189.987,-56.852 185.583,-61.256 189.987,-65.66 194.391,-61.256 			"/>
		</g>
		<g>
			<path fill="#B858C6" d="M26.292-122.259l14.516,14.516L28.851-95.787l2.539,2.539L16.875-78.732L2.358-93.248l11.957-11.957
				l-2.539-2.539L26.292-122.259z M26.292-115.459l-7.715,7.716l2.539,2.539L9.159-93.248l7.715,7.715l7.715-7.715l-2.539-2.539
				l11.957-11.957L26.292-115.459z"/>
			<polygon fill="#F46060" points="20.992,-93.235 16.742,-88.985 12.491,-93.235 16.742,-97.485 			"/>
		</g>
		<g>
			<path fill="#B858C6" d="M90.018-173.361h-1.428c-0.598,0-1.083-0.485-1.083-1.083v-7.59c0-0.598,0.485-1.083,1.083-1.083h1.428
				c0.598,0,1.083,0.485,1.083,1.083v7.59C91.101-173.846,90.616-173.361,90.018-173.361z"/>
			<path fill="#F46060" d="M96.95-173.361h-1.428c-0.598,0-1.083-0.485-1.083-1.083v-7.59c0-0.598,0.485-1.083,1.083-1.083h1.428
				c0.598,0,1.083,0.485,1.083,1.083v7.59C98.033-173.846,97.548-173.361,96.95-173.361z"/>
		</g>
		<g>
			<path fill="#60D8A1" d="M167.701-97.82l-1.01,1.01c-0.423,0.423-1.109,0.423-1.532,0l-5.367-5.367
				c-0.423-0.423-0.423-1.108,0-1.531l1.01-1.01c0.423-0.423,1.108-0.423,1.531,0l5.367,5.367
				C168.124-98.928,168.124-98.243,167.701-97.82z"/>
			<path fill="#FFBC36" d="M172.603-102.721l-1.01,1.01c-0.423,0.423-1.108,0.423-1.531,0l-5.367-5.367
				c-0.423-0.423-0.423-1.108,0-1.531l1.01-1.01c0.423-0.423,1.109-0.423,1.532,0l5.367,5.367
				C173.026-103.83,173.026-103.144,172.603-102.721z"/>
		</g>
		<g>
			<path fill="#B858C6" d="M49.894-173.891v1.428c0,0.598-0.485,1.083-1.083,1.083h-7.59c-0.598,0-1.083-0.485-1.083-1.083v-1.428
				c0-0.598,0.484-1.083,1.083-1.083h7.59C49.409-174.974,49.894-174.489,49.894-173.891z"/>
			<path fill="#60D8A1" d="M49.894-180.823v1.429c0,0.598-0.485,1.083-1.083,1.083h-7.59c-0.598,0-1.083-0.484-1.083-1.083v-1.429
				c0-0.598,0.484-1.083,1.083-1.083h7.59C49.409-181.906,49.894-181.421,49.894-180.823z"/>
		</g>
		<g>
			<path fill="#B858C6" d="M12.923-212.574v1.429c0,0.598-0.485,1.083-1.083,1.083H4.25c-0.598,0-1.083-0.485-1.083-1.083v-1.429
				c0-0.598,0.485-1.083,1.083-1.083h7.59C12.438-213.657,12.923-213.172,12.923-212.574z"/>
			<path fill="#F46060" d="M12.923-219.505v1.428c0,0.598-0.485,1.083-1.083,1.083H4.25c-0.598,0-1.083-0.485-1.083-1.083v-1.428
				c0-0.598,0.485-1.083,1.083-1.083h7.59C12.438-220.588,12.923-220.104,12.923-219.505z"/>
		</g>
		<g>
			<path fill="#60D8A1" d="M60.848-193.601h-1.429c-0.598,0-1.083-0.485-1.083-1.083v-7.59c0-0.598,0.485-1.083,1.083-1.083h1.429
				c0.598,0,1.083,0.485,1.083,1.083v7.59C61.931-194.086,61.446-193.601,60.848-193.601z"/>
			<path fill="#F46060" d="M67.78-193.601h-1.428c-0.598,0-1.083-0.485-1.083-1.083v-7.59c0-0.598,0.485-1.083,1.083-1.083h1.428
				c0.598,0,1.083,0.485,1.083,1.083v7.59C68.863-194.086,68.378-193.601,67.78-193.601z"/>
		</g>
		<g>
			<path fill="#B858C6" d="M238.712-215.814h-1.429c-0.598,0-1.083-0.485-1.083-1.083v-7.59c0-0.598,0.485-1.083,1.083-1.083h1.429
				c0.598,0,1.083,0.485,1.083,1.083v7.59C239.795-216.299,239.31-215.814,238.712-215.814z"/>
			<path fill="#FFBC36" d="M245.644-215.814h-1.429c-0.598,0-1.083-0.485-1.083-1.083v-7.59c0-0.598,0.485-1.083,1.083-1.083h1.429
				c0.598,0,1.083,0.485,1.083,1.083v7.59C246.727-216.299,246.242-215.814,245.644-215.814z"/>
		</g>
		<g>
			<path fill="#60D8A1" d="M114.853-235.657l1.01,1.01c0.423,0.423,0.423,1.108,0,1.531l-5.367,5.367
				c-0.423,0.423-1.108,0.423-1.531,0l-1.01-1.01c-0.423-0.423-0.423-1.109,0-1.532l5.367-5.367
				C113.744-236.08,114.43-236.08,114.853-235.657z"/>
			<path fill="#FFBC36" d="M109.951-240.558l1.01,1.01c0.423,0.423,0.423,1.109,0,1.532l-5.367,5.367
				c-0.423,0.423-1.109,0.423-1.532,0l-1.01-1.01c-0.423-0.423-0.423-1.108,0-1.532l5.367-5.367
				C108.843-240.981,109.528-240.981,109.951-240.558z"/>
		</g>
		<g>
			<path fill="#FFBC36" d="M235.447-175.117l-1.01,1.01c-0.423,0.423-1.108,0.423-1.531,0l-5.367-5.367
				c-0.423-0.423-0.423-1.108,0-1.531l1.01-1.01c0.423-0.423,1.108-0.423,1.531,0l5.367,5.367
				C235.87-176.226,235.87-175.54,235.447-175.117z"/>
			<path fill="#F46060" d="M240.349-180.019l-1.01,1.01c-0.423,0.423-1.109,0.423-1.532,0l-5.367-5.367
				c-0.423-0.423-0.423-1.109,0-1.532l1.01-1.01c0.423-0.423,1.109-0.423,1.532,0l5.367,5.367
				C240.772-181.127,240.772-180.441,240.349-180.019z"/>
		</g>
		<g>
			<path fill="#60D8A1" d="M50.335-120.16h1.428c0.598,0,1.083,0.485,1.083,1.083v7.59c0,0.598-0.485,1.083-1.083,1.083h-1.428
				c-0.598,0-1.083-0.484-1.083-1.083v-7.59C49.252-119.675,49.737-120.16,50.335-120.16z"/>
			<path fill="#60D8A1" d="M43.403-120.16h1.428c0.598,0,1.083,0.485,1.083,1.083v7.59c0,0.598-0.485,1.083-1.083,1.083h-1.428
				c-0.598,0-1.083-0.484-1.083-1.083v-7.59C42.32-119.675,42.805-120.16,43.403-120.16z"/>
		</g>
		<g>
			<path fill="#FFBC36" d="M172.702-133.08v-1.472c0-0.616,0.5-1.115,1.116-1.115h7.818c0.616,0,1.115,0.5,1.115,1.115v1.472
				c0,0.616-0.499,1.115-1.115,1.115h-7.818C173.201-131.964,172.702-132.464,172.702-133.08z"/>
			<path fill="#60D8A1" d="M172.702-125.939v-1.471c0-0.616,0.5-1.116,1.116-1.116h7.818c0.616,0,1.115,0.5,1.115,1.116v1.471
				c0,0.616-0.499,1.116-1.115,1.116h-7.818C173.201-124.824,172.702-125.323,172.702-125.939z"/>
		</g>
		<g>
			<path fill="#F46060" d="M66.783-144.165v1.428c0,0.598-0.485,1.083-1.083,1.083h-7.59c-0.598,0-1.083-0.485-1.083-1.083v-1.428
				c0-0.598,0.485-1.083,1.083-1.083h7.59C66.298-145.248,66.783-144.763,66.783-144.165z"/>
			<path fill="#B858C6" d="M66.783-151.097v1.428c0,0.598-0.485,1.083-1.083,1.083h-7.59c-0.598,0-1.083-0.485-1.083-1.083v-1.428
				c0-0.598,0.485-1.083,1.083-1.083h7.59C66.298-152.18,66.783-151.695,66.783-151.097z"/>
		</g>
		<g>
			<path fill="#F46060" d="M37.548-50.027v1.429c0,0.598-0.485,1.083-1.083,1.083h-7.59c-0.598,0-1.083-0.485-1.083-1.083v-1.429
				c0-0.598,0.485-1.083,1.083-1.083h7.59C37.063-51.11,37.548-50.625,37.548-50.027z"/>
			<path fill="#F46060" d="M37.548-56.958v1.428c0,0.598-0.485,1.083-1.083,1.083h-7.59c-0.598,0-1.083-0.485-1.083-1.083v-1.428
				c0-0.598,0.485-1.083,1.083-1.083h7.59C37.063-58.042,37.548-57.557,37.548-56.958z"/>
		</g>
		<g>
			<path fill="#60D8A1" d="M243.702-51.623h1.429c0.598,0,1.083,0.485,1.083,1.083v7.59c0,0.598-0.485,1.083-1.083,1.083h-1.429
				c-0.598,0-1.083-0.485-1.083-1.083v-7.59C242.619-51.138,243.104-51.623,243.702-51.623z"/>
			<path fill="#B858C6" d="M236.77-51.623h1.428c0.598,0,1.083,0.485,1.083,1.083v7.59c0,0.598-0.485,1.083-1.083,1.083h-1.428
				c-0.598,0-1.083-0.485-1.083-1.083v-7.59C235.687-51.138,236.172-51.623,236.77-51.623z"/>
		</g>
		<g>
			<path fill="#B858C6" d="M134.885-29.38v-1.428c0-0.598,0.485-1.083,1.083-1.083h7.59c0.598,0,1.083,0.485,1.083,1.083v1.428
				c0,0.598-0.485,1.083-1.083,1.083h-7.59C135.37-28.297,134.885-28.782,134.885-29.38z"/>
			<path fill="#B858C6" d="M134.885-22.448v-1.428c0-0.598,0.485-1.083,1.083-1.083h7.59c0.598,0,1.083,0.485,1.083,1.083v1.428
				c0,0.598-0.485,1.083-1.083,1.083h-7.59C135.37-21.365,134.885-21.85,134.885-22.448z"/>
		</g>
		<g>
			<path fill="#B858C6" d="M113.38-115.369c0,5.742-4.655,10.396-10.396,10.396c-5.742,0-10.397-4.655-10.397-10.396
				c0-5.742,4.655-10.396,10.397-10.396C108.725-125.766,113.38-121.111,113.38-115.369z M110.781-115.369
				c0-4.307-3.491-7.797-7.797-7.797c-4.307,0-7.797,3.491-7.797,7.797s3.491,7.797,7.797,7.797
				C107.29-107.572,110.781-111.063,110.781-115.369z"/>
			<path fill="#F46060" d="M121.253-123.242c0,5.742-4.655,10.397-10.397,10.397c-5.742,0-10.396-4.655-10.396-10.397
				c0-5.742,4.655-10.396,10.396-10.396C116.598-133.639,121.253-128.984,121.253-123.242z M118.654-123.242
				c0-4.306-3.491-7.797-7.798-7.797c-4.306,0-7.797,3.491-7.797,7.797c0,4.307,3.491,7.798,7.797,7.798
				C115.163-115.444,118.654-118.936,118.654-123.242z"/>
			<path fill="#60D8A1" d="M129.954-131.943c0,5.742-4.654,10.396-10.396,10.396c-5.742,0-10.396-4.655-10.396-10.396
				c0-5.742,4.655-10.397,10.396-10.397C125.3-142.34,129.954-137.686,129.954-131.943z M127.355-131.943
				c0-4.307-3.491-7.798-7.797-7.798s-7.797,3.491-7.797,7.798c0,4.306,3.491,7.797,7.797,7.797S127.355-127.637,127.355-131.943z"
				/>
		</g>
		<g>
			<path fill="#FFBC36" d="M146.091-213.748c0,5.111-4.143,9.254-9.254,9.254s-9.254-4.143-9.254-9.254
				c0-5.11,4.143-9.253,9.254-9.253S146.091-218.858,146.091-213.748z M143.777-213.748c0-3.833-3.107-6.94-6.94-6.94
				s-6.94,3.107-6.94,6.94s3.107,6.94,6.94,6.94S143.777-209.915,143.777-213.748z"/>
			<path fill="#60D8A1" d="M153.098-220.755c0,5.111-4.143,9.254-9.254,9.254s-9.253-4.143-9.253-9.254s4.143-9.253,9.253-9.253
				S153.098-225.866,153.098-220.755z M150.785-220.755c0-3.833-3.107-6.94-6.94-6.94s-6.94,3.107-6.94,6.94s3.107,6.94,6.94,6.94
				S150.785-216.922,150.785-220.755z"/>
		</g>
		<g>
			<path fill="#FFBC36" d="M214.884-12.418c0,5.676-4.602,10.277-10.277,10.277c-5.676,0-10.277-4.602-10.277-10.277
				c0-5.676,4.601-10.277,10.277-10.277C210.283-22.696,214.884-18.095,214.884-12.418z M212.315-12.418
				c0-4.257-3.451-7.708-7.708-7.708c-4.257,0-7.708,3.451-7.708,7.708c0,4.257,3.451,7.708,7.708,7.708
				C208.864-4.71,212.315-8.162,212.315-12.418z"/>
			<path fill="#B858C6" d="M222.667-20.201c0,5.676-4.601,10.277-10.277,10.277c-5.676,0-10.277-4.601-10.277-10.277
				s4.602-10.277,10.277-10.277C218.065-30.479,222.667-25.877,222.667-20.201z M220.097-20.201c0-4.257-3.451-7.708-7.708-7.708
				c-4.257,0-7.708,3.451-7.708,7.708c0,4.257,3.451,7.708,7.708,7.708C216.646-12.493,220.097-15.944,220.097-20.201z"/>
		</g>
		<g>
			<g>
				<polygon fill="#60D8A1" points="78.482,-142.549 75.485,-145.545 86.7,-156.76 89.696,-153.763 				"/>
				<polygon fill="#60D8A1" points="84.055,-136.976 81.058,-139.973 95.647,-154.561 98.643,-151.564 				"/>
			</g>
			<g>
				<polygon fill="#60D8A1" points="97.505,-161.572 94.509,-164.568 89.255,-159.314 92.251,-156.318 				"/>
				<polygon fill="#60D8A1" points="103.367,-156.289 100.371,-159.285 97.623,-156.538 100.62,-153.541 				"/>
			</g>
		</g>
		<path fill="#60D8A1" d="M206.155-248.263l0.798,1.459c1.01,1.846,2.528,3.364,4.375,4.375l1.459,0.798l-1.459,0.798
			c-1.846,1.01-3.365,2.528-4.375,4.375L206.155-235l-0.798-1.459c-1.01-1.846-2.528-3.365-4.375-4.375l-1.459-0.798l1.459-0.798
			c1.846-1.01,3.364-2.528,4.375-4.375L206.155-248.263z"/>
		<path fill="#F46060" d="M109.052-194.124l0.52,0.951c0.658,1.203,1.647,2.192,2.851,2.85l0.951,0.52l-0.951,0.52
			c-1.203,0.658-2.192,1.647-2.851,2.85l-0.52,0.951l-0.52-0.951c-0.658-1.203-1.647-2.192-2.85-2.85l-0.951-0.52l0.951-0.52
			c1.203-0.658,2.192-1.647,2.85-2.85L109.052-194.124z"/>
		<path fill="#60D8A1" d="M38.217-249.046l0.741,1.354c0.938,1.714,2.347,3.124,4.061,4.061l1.354,0.741l-1.354,0.741
			c-1.714,0.938-3.124,2.347-4.061,4.061l-0.741,1.354l-0.741-1.354c-0.938-1.714-2.347-3.124-4.061-4.061l-1.354-0.741l1.354-0.741
			c1.714-0.938,3.124-2.347,4.061-4.061L38.217-249.046z"/>
		<path fill="#F46060" d="M167.444-90.768l0.741,1.355c0.938,1.714,2.347,3.124,4.061,4.061l1.355,0.741l-1.355,0.741
			c-1.714,0.938-3.124,2.347-4.061,4.061l-0.741,1.355l-0.741-1.355c-0.938-1.714-2.347-3.124-4.061-4.061l-1.355-0.741l1.355-0.741
			c1.714-0.938,3.124-2.347,4.061-4.061L167.444-90.768z"/>
		<path fill="#B858C6" d="M100.006-47.814l0.639,1.168c0.808,1.479,2.024,2.694,3.502,3.502l1.168,0.639l-1.168,0.639
			c-1.478,0.809-2.694,2.024-3.502,3.502l-0.639,1.168l-0.639-1.168c-0.808-1.479-2.024-2.694-3.502-3.502l-1.168-0.639l1.168-0.639
			c1.478-0.809,2.694-2.024,3.502-3.502L100.006-47.814z"/>
		<path fill="#B858C6" d="M10.827-43.013l0.741,1.355c0.938,1.715,2.349,3.125,4.064,4.064l1.355,0.741l-1.355,0.741
			c-1.715,0.938-3.125,2.349-4.064,4.064l-0.741,1.356l-0.742-1.356c-0.938-1.715-2.348-3.125-4.064-4.064l-1.355-0.741l1.355-0.741
			c1.716-0.938,3.126-2.349,4.064-4.064L10.827-43.013z"/>
		<path fill="#60D8A1" d="M240.868-15.274l0.741,1.355c0.938,1.715,2.349,3.126,4.064,4.064l1.356,0.742l-1.356,0.741
			c-1.715,0.938-3.125,2.349-4.064,4.064l-0.741,1.355l-0.741-1.355c-0.938-1.715-2.349-3.126-4.064-4.064l-1.355-0.741l1.355-0.742
			c1.715-0.938,3.125-2.349,4.064-4.064L240.868-15.274z"/>
		<path fill="#F46060" d="M243.435-78.238l0.696,1.272c0.881,1.611,2.205,2.935,3.815,3.816l1.273,0.696l-1.273,0.696
			c-1.61,0.881-2.935,2.205-3.815,3.815l-0.696,1.272l-0.696-1.272c-0.881-1.61-2.205-2.935-3.816-3.815l-1.272-0.696l1.272-0.696
			c1.611-0.881,2.935-2.205,3.816-3.816L243.435-78.238z"/>
		<path fill="#FFBC36" d="M167.773-203.79l0.538,0.983c0.68,1.244,1.703,2.267,2.947,2.947l0.983,0.538l-0.983,0.538
			c-1.244,0.68-2.267,1.703-2.947,2.947l-0.538,0.983l-0.538-0.983c-0.681-1.244-1.703-2.267-2.947-2.947l-0.983-0.538l0.983-0.538
			c1.244-0.681,2.267-1.704,2.947-2.947L167.773-203.79z"/>
		<path fill="#FFBC36" d="M7.513-179.431l0.538,0.983c0.68,1.244,1.703,2.267,2.947,2.947l0.983,0.538l-0.983,0.538
			c-1.244,0.68-2.267,1.703-2.947,2.947l-0.538,0.983l-0.538-0.983c-0.681-1.244-1.703-2.267-2.947-2.947l-0.983-0.538l0.983-0.538
			c1.244-0.68,2.267-1.703,2.947-2.947L7.513-179.431z"/>
		<path fill="#60D8A1" d="M13.378-70.852c0,2.827-2.292,5.119-5.119,5.119S3.14-68.024,3.14-70.852s2.292-5.119,5.119-5.119
			S13.378-73.679,13.378-70.852z M11.565-70.852c0-1.826-1.48-3.306-3.306-3.306c-1.826,0-3.306,1.48-3.306,3.306
			s1.48,3.306,3.306,3.306C10.084-67.545,11.565-69.026,11.565-70.852z"/>
		<polygon fill="#FFBC36" points="50.364,-65.615 44.459,-65.615 44.459,-71.521 50.364,-71.521 		"/>
		<polygon fill="#60D8A1" points="216.414,-196.633 210.885,-196.633 210.885,-202.163 216.414,-202.163 		"/>
		<polygon fill="#B858C6" points="200.216,-154.619 195.081,-154.619 195.081,-159.754 200.216,-159.754 		"/>
		<polygon fill="#60D8A1" points="150.665,-241.842 144.503,-241.842 144.503,-248.004 150.665,-248.004 		"/>
		<polygon fill="#60D8A1" points="69.534,-219.318 64.143,-219.318 64.143,-224.709 69.534,-224.709 		"/>
		<polygon fill="#B858C6" points="92.258,-3.078 83.272,-3.078 83.272,-12.064 92.258,-12.064 		"/>
		<polygon fill="#FFBC36" points="26.037,-1.858 19.875,-1.858 19.875,-8.02 26.037,-8.02 		"/>
		<polygon fill="#B858C6" points="245.231,-105.239 239.326,-105.239 239.326,-111.144 245.231,-111.144 		"/>
		<path fill="#60D8A1" d="M186.095-110.545c0,0.945-0.766,1.711-1.711,1.711s-1.712-0.766-1.712-1.711s0.767-1.712,1.712-1.712
			S186.095-111.49,186.095-110.545z"/>
		<path fill="#B858C6" d="M244.211-237.5c0,0.945-0.766,1.711-1.711,1.711s-1.711-0.766-1.711-1.711s0.766-1.711,1.711-1.711
			S244.211-238.445,244.211-237.5z"/>
		<path fill="#B858C6" d="M191.711-245.25c0,0.945-0.766,1.711-1.711,1.711s-1.711-0.766-1.711-1.711s0.766-1.711,1.711-1.711
			S191.711-246.195,191.711-245.25z"/>
		<path fill="#F46060" d="M121.969-223.958c0,1.663-1.348,3.011-3.011,3.011c-1.663,0-3.011-1.348-3.011-3.011
			c0-1.663,1.348-3.011,3.011-3.011C120.621-226.969,121.969-225.621,121.969-223.958z"/>
		<path fill="#B858C6" d="M246.878-167.833c0,0.945-0.767,1.712-1.712,1.712s-1.711-0.767-1.711-1.712s0.766-1.711,1.711-1.711
			S246.878-168.779,246.878-167.833z"/>
		<path fill="#B858C6" d="M178.553-4.4c0,1.418-1.149,2.567-2.567,2.567s-2.567-1.149-2.567-2.567s1.149-2.567,2.567-2.567
			S178.553-5.818,178.553-4.4z"/>
		<path fill="#FFBC36" d="M117.289-81.105c0,2.08-1.686,3.766-3.766,3.766s-3.766-1.686-3.766-3.766s1.686-3.766,3.766-3.766
			S117.289-83.185,117.289-81.105z"/>
		<path fill="#B858C6" d="M154.259-153.335c0,1.512-1.226,2.739-2.739,2.739c-1.512,0-2.738-1.227-2.738-2.739
			s1.226-2.739,2.738-2.739C153.033-156.074,154.259-154.848,154.259-153.335z"/>
		<path fill="#B858C6" d="M198.346-125.897c0,1.513-1.226,2.739-2.739,2.739c-1.512,0-2.738-1.226-2.738-2.739
			c0-1.512,1.226-2.739,2.738-2.739C197.12-128.636,198.346-127.41,198.346-125.897z"/>
		<path fill="#B858C6" d="M105.221-143.536c0,1.512-1.226,2.738-2.739,2.738c-1.512,0-2.738-1.226-2.738-2.738
			c0-1.513,1.226-2.739,2.738-2.739C103.995-146.275,105.221-145.049,105.221-143.536z"/>
		<polygon fill="#60D8A1" points="129.421,-197.208 126.208,-193.995 122.995,-197.208 126.208,-200.421 		"/>
		<polygon fill="#B858C6" points="78.046,-165.046 74.833,-161.833 71.62,-165.046 74.833,-168.26 		"/>
		<polygon fill="#B858C6" points="22.732,-183.396 20.204,-180.867 17.675,-183.396 20.204,-185.924 		"/>
		<polygon fill="#F46060" points="217.5,-69 214.287,-65.787 211.074,-69 214.287,-72.213 		"/>
		<polygon fill="#B858C6" points="130,-53.5 126.787,-50.287 123.574,-53.5 126.787,-56.713 		"/>
		<polygon fill="#FFBC36" points="82.213,-103 79,-99.787 75.787,-103 79,-106.213 		"/>
		<polygon fill="#FFBC36" points="26.713,-154.167 23.5,-150.954 20.287,-154.167 23.5,-157.38 		"/>
		<polygon fill="#B858C6" points="72.713,-30.833 69.5,-27.62 66.287,-30.833 69.5,-34.046 		"/>
		<polygon fill="#F46060" points="9.046,-117.833 5.833,-114.62 2.62,-117.833 5.833,-121.046 		"/>
		<polygon fill="#FFBC36" points="231.169,-129.454 227.956,-126.241 224.743,-129.454 227.956,-132.667 		"/>
		<polygon fill="#B858C6" points="246.919,-191.579 243.706,-188.366 240.493,-191.579 243.706,-194.792 		"/>
		<polygon fill="#B858C6" points="228.152,-218.329 225.206,-215.383 222.26,-218.329 225.206,-221.275 		"/>
		<path fill="#B858C6" d="M221.944-199.478c0,4.568-3.704,8.272-8.272,8.272s-8.272-3.704-8.272-8.272s3.704-8.272,8.272-8.272
			S221.944-204.046,221.944-199.478z M219.539-199.478c0-3.24-2.627-5.867-5.867-5.867s-5.867,2.627-5.867,5.867
			s2.627,5.867,5.867,5.867S219.539-196.238,219.539-199.478z"/>
		<path fill="#F46060" d="M161-133.792c0,2.6-2.108,4.708-4.708,4.708c-2.6,0-4.708-2.108-4.708-4.708
			c0-2.601,2.108-4.708,4.708-4.708C158.892-138.5,161-136.392,161-133.792z M159.083-133.792c0-1.542-1.25-2.792-2.792-2.792
			c-1.542,0-2.792,1.25-2.792,2.792c0,1.542,1.25,2.792,2.792,2.792C157.833-131,159.083-132.25,159.083-133.792z"/>
		<path fill="#B858C6" d="M98.813-224.042c0,1.668-1.353,3.021-3.021,3.021c-1.668,0-3.021-1.352-3.021-3.021
			s1.353-3.021,3.021-3.021C97.46-227.063,98.813-225.71,98.813-224.042z M97.583-224.042c0-0.989-0.802-1.792-1.792-1.792
			c-0.989,0-1.791,0.802-1.791,1.792c0,0.989,0.802,1.791,1.791,1.791C96.781-222.25,97.583-223.053,97.583-224.042z"/>
		<path fill="#F46060" d="M122.167-245c0,1.657-1.343,3-3,3c-1.657,0-3-1.343-3-3s1.343-3,3-3
			C120.824-248,122.167-246.657,122.167-245z M120.945-245c0-0.982-0.796-1.779-1.779-1.779s-1.779,0.796-1.779,1.779
			s0.796,1.779,1.779,1.779S120.945-244.018,120.945-245z"/>
		<path fill="#F46060" d="M67.021-125.291c0,1.668-1.353,3.021-3.021,3.021s-3.021-1.352-3.021-3.021s1.353-3.021,3.021-3.021
			S67.021-126.959,67.021-125.291z M65.791-125.291c0-0.989-0.802-1.791-1.791-1.791s-1.791,0.802-1.791,1.791
			S63.011-123.5,64-123.5S65.791-124.302,65.791-125.291z"/>
		<path fill="#F46060" d="M228.75-40.5c0,1.956-1.585,3.541-3.541,3.541s-3.541-1.585-3.541-3.541s1.585-3.541,3.541-3.541
			S228.75-42.456,228.75-40.5z M227.309-40.5c0-1.16-0.94-2.1-2.1-2.1s-2.1,0.94-2.1,2.1s0.94,2.1,2.1,2.1
			S227.309-39.34,227.309-40.5z"/>
		<path fill="#B858C6" d="M107.5-63.833c0,2.37-1.921,4.292-4.291,4.292c-2.37,0-4.291-1.921-4.291-4.292
			c0-2.37,1.921-4.291,4.291-4.291C105.579-68.125,107.5-66.203,107.5-63.833z M105.753-63.833c0-1.405-1.139-2.544-2.544-2.544
			s-2.544,1.139-2.544,2.544c0,1.405,1.139,2.544,2.544,2.544S105.753-62.428,105.753-63.833z"/>
		<path fill="#F46060" d="M160.247-189c0,2.37-1.921,4.291-4.291,4.291c-2.37,0-4.291-1.921-4.291-4.291s1.921-4.291,4.291-4.291
			C158.326-193.291,160.247-191.37,160.247-189z M158.5-189c0-1.405-1.139-2.544-2.544-2.544s-2.544,1.139-2.544,2.544
			s1.139,2.544,2.544,2.544S158.5-187.595,158.5-189z"/>
		<path fill="#F46060" d="M238.25-138c0,1.267-1.027,2.294-2.294,2.294s-2.294-1.027-2.294-2.294s1.027-2.294,2.294-2.294
			S238.25-139.267,238.25-138z M237.316-138c0-0.751-0.609-1.36-1.36-1.36c-0.751,0-1.36,0.609-1.36,1.36s0.609,1.36,1.36,1.36
			C236.707-136.64,237.316-137.249,237.316-138z"/>
		<path fill="#F46060" d="M33.583-191.667c0,1.267-1.027,2.294-2.294,2.294s-2.294-1.027-2.294-2.294s1.027-2.294,2.294-2.294
			S33.583-192.934,33.583-191.667z M32.649-191.667c0-0.751-0.609-1.36-1.36-1.36s-1.36,0.609-1.36,1.36
			c0,0.751,0.609,1.36,1.36,1.36S32.649-190.916,32.649-191.667z"/>
		<path fill="#FFBC36" d="M42.333-130.527c0,1.749-1.418,3.167-3.167,3.167c-1.749,0-3.167-1.418-3.167-3.167
			c0-1.749,1.418-3.167,3.167-3.167C40.916-133.694,42.333-132.276,42.333-130.527z M41.044-130.527
			c0-1.037-0.841-1.878-1.878-1.878c-1.037,0-1.877,0.841-1.877,1.878c0,1.037,0.841,1.877,1.877,1.877
			C40.204-128.649,41.044-129.49,41.044-130.527z"/>
		<path fill="#60D8A1" d="M181.308-208.919c0,2.271-1.841,4.112-4.112,4.112c-2.271,0-4.112-1.841-4.112-4.112
			s1.841-4.112,4.112-4.112C179.467-213.031,181.308-211.19,181.308-208.919z M179.634-208.919c0-1.347-1.092-2.438-2.438-2.438
			c-1.347,0-2.438,1.091-2.438,2.438c0,1.346,1.091,2.438,2.438,2.438C178.542-206.481,179.634-207.573,179.634-208.919z"/>
		<path fill="#B858C6" d="M41.75-163.313c0,2.382-1.931,4.313-4.313,4.313s-4.313-1.931-4.313-4.313s1.931-4.313,4.313-4.313
			S41.75-165.694,41.75-163.313z M39.995-163.313c0-1.412-1.145-2.557-2.557-2.557s-2.557,1.145-2.557,2.557
			s1.145,2.557,2.557,2.557S39.995-161.9,39.995-163.313z"/>
	</g>
</pattern>
<g id="PATTERN">
	<rect fill="url(#New_Pattern_3)" width="150" height="74.1"/>
</g>
<g id="OBJECTS" display="none">
</g>
<g id="DESIGNED_BY_FREEPIK">
</g>
</svg>
