<?xml version="1.0" encoding="utf-8"?>
<!-- Generator: Adobe Illustrator 16.0.0, SVG Export Plug-In . SVG Version: 6.00 Build 0)  -->
<!DOCTYPE svg PUBLIC "-//W3C//DTD SVG 1.1//EN" "http://www.w3.org/Graphics/SVG/1.1/DTD/svg11.dtd">
<svg version="1.1" id="Capa_1" xmlns="http://www.w3.org/2000/svg" xmlns:xlink="http://www.w3.org/1999/xlink" x="0px" y="0px"
	 width="308.137px" height="245px" viewBox="0 0 308.137 245" enable-background="new 0 0 308.137 245" xml:space="preserve">
<g id="Capa_4" display="none">
	<g display="inline">
		
			<line fill="none" stroke="#20C997" stroke-width="0.2" stroke-miterlimit="10" x1="174.951" y1="102.664" x2="161.787" y2="191.359"/>
		
			<line fill="none" stroke="#20C997" stroke-width="0.2" stroke-miterlimit="10" x1="161.787" y1="191.359" x2="126.043" y2="129.936"/>
		
			<line fill="none" stroke="#20C997" stroke-width="0.2" stroke-miterlimit="10" x1="126.043" y1="129.936" x2="91.613" y2="208.854"/>
		
			<line fill="none" stroke="#20C997" stroke-width="0.2" stroke-miterlimit="10" x1="91.613" y1="208.854" x2="67.84" y2="148.854"/>
		
			<line fill="none" stroke="#20C997" stroke-width="0.2" stroke-miterlimit="10" x1="67.84" y1="148.854" x2="43.842" y2="212.789"/>
		
			<line fill="none" stroke="#20C997" stroke-width="0.2" stroke-miterlimit="10" x1="67.84" y1="148.854" x2="154.055" y2="68.879"/>
		<line fill="none" stroke="#20C997" stroke-width="0.2" stroke-miterlimit="10" x1="90.225" y1="64.151" x2="67.84" y2="148.854"/>
		
			<line fill="none" stroke="#20C997" stroke-width="0.2" stroke-miterlimit="10" x1="90.225" y1="64.151" x2="154.055" y2="68.879"/>
		
			<line fill="none" stroke="#20C997" stroke-width="0.2" stroke-miterlimit="10" x1="90.225" y1="64.151" x2="174.951" y2="102.664"/>
		
			<line fill="none" stroke="#20C997" stroke-width="0.2" stroke-miterlimit="10" x1="90.225" y1="64.151" x2="126.043" y2="129.936"/>
		<line fill="none" stroke="#20C997" stroke-width="0.2" stroke-miterlimit="10" x1="90.225" y1="64.151" x2="-13.67" y2="98.5"/>
		
			<line fill="none" stroke="#20C997" stroke-width="0.2" stroke-miterlimit="10" x1="126.043" y1="129.936" x2="67.84" y2="148.854"/>
		
			<line fill="none" stroke="#20C997" stroke-width="0.2" stroke-miterlimit="10" x1="126.043" y1="129.936" x2="229.809" y2="113.313"/>
		
			<line fill="none" stroke="#20C997" stroke-width="0.2" stroke-miterlimit="10" x1="174.951" y1="102.664" x2="126.043" y2="129.936"/>
		
			<line fill="none" stroke="#20C997" stroke-width="0.2" stroke-miterlimit="10" x1="174.951" y1="102.664" x2="224.307" y2="207.102"/>
		
			<line fill="none" stroke="#20C997" stroke-width="0.2" stroke-miterlimit="10" x1="224.307" y1="207.102" x2="161.787" y2="191.359"/>
		
			<line fill="none" stroke="#20C997" stroke-width="0.2" stroke-miterlimit="10" x1="161.787" y1="191.359" x2="91.613" y2="208.854"/>
		
			<line fill="none" stroke="#20C997" stroke-width="0.2" stroke-miterlimit="10" x1="91.613" y1="208.854" x2="43.842" y2="212.789"/>
		
			<line fill="none" stroke="#20C997" stroke-width="0.2" stroke-miterlimit="10" x1="224.307" y1="207.102" x2="297.301" y2="105.893"/>
		
			<line fill="none" stroke="#20C997" stroke-width="0.2" stroke-miterlimit="10" x1="297.301" y1="105.893" x2="307.83" y2="108.866"/>
		
			<line fill="none" stroke="#20C997" stroke-width="0.2" stroke-miterlimit="10" x1="307.83" y1="108.866" x2="318.224" y2="111.801"/>
		
			<line fill="none" stroke="#20C997" stroke-width="0.2" stroke-miterlimit="10" x1="229.809" y1="113.313" x2="310.33" y2="160.646"/>
		
			<line fill="none" stroke="#20C997" stroke-width="0.2" stroke-miterlimit="10" x1="229.809" y1="113.313" x2="297.301" y2="105.893"/>
		
			<line fill="none" stroke="#20C997" stroke-width="0.2" stroke-miterlimit="10" x1="224.307" y1="207.102" x2="311.58" y2="199.23"/>
		
			<line fill="none" stroke="#20C997" stroke-width="0.2" stroke-miterlimit="10" x1="229.809" y1="113.313" x2="224.307" y2="207.102"/>
		<line fill="none" stroke="#20C997" stroke-width="0.2" stroke-miterlimit="10" x1="67.84" y1="148.854" x2="-7.67" y2="116.299"/>
		<line fill="none" stroke="#20C997" stroke-width="0.2" stroke-miterlimit="10" x1="67.84" y1="148.854" x2="-5.42" y2="156.497"/>
		
			<line fill="none" stroke="#20C997" stroke-width="0.2" stroke-miterlimit="10" x1="43.842" y1="212.789" x2="-9.42" y2="191.359"/>
		<line fill="none" stroke="#20C997" stroke-width="0.2" stroke-miterlimit="10" x1="43.842" y1="212.789" x2="-9.42" y2="164.5"/>
		
			<line fill="none" stroke="#20C997" stroke-width="0.2" stroke-miterlimit="10" x1="174.951" y1="102.664" x2="229.809" y2="113.313"/>
		
			<line fill="none" stroke="#20C997" stroke-width="0.2" stroke-miterlimit="10" x1="174.951" y1="102.664" x2="154.055" y2="68.879"/>
		
			<line fill="none" stroke="#20C997" stroke-width="0.2" stroke-miterlimit="10" x1="297.301" y1="105.893" x2="161.787" y2="191.359"/>
		<circle fill="#20C997" cx="297.301" cy="105.893" r="0.855"/>
		<circle fill="#20C997" cx="229.809" cy="113.313" r="0.855"/>
		<circle fill="#20C997" cx="224.307" cy="207.102" r="0.855"/>
		<circle fill="#20C997" cx="161.787" cy="191.359" r="0.855"/>
		<circle fill="#20C997" cx="91.613" cy="208.854" r="0.855"/>
		<circle fill="#20C997" cx="43.842" cy="212.788" r="0.854"/>
		<circle fill="#20C997" cx="67.84" cy="148.893" r="0.855"/>
		<circle fill="#20C997" cx="90.225" cy="64.15" r="0.855"/>
		<circle fill="#20C997" cx="154.055" cy="68.879" r="0.855"/>
		<circle fill="#20C997" cx="174.951" cy="102.663" r="0.855"/>
		<circle fill="#20C997" cx="126.043" cy="129.934" r="0.855"/>
	</g>
</g>
<g id="Capa_2" display="none">
	<g display="inline">
		
			<line fill="none" stroke="#DC3545" stroke-width="0.2" stroke-miterlimit="10" x1="174.951" y1="102.664" x2="161.787" y2="191.359"/>
		
			<line fill="none" stroke="#DC3545" stroke-width="0.2" stroke-miterlimit="10" x1="161.787" y1="191.359" x2="126.043" y2="129.936"/>
		
			<line fill="none" stroke="#DC3545" stroke-width="0.2" stroke-miterlimit="10" x1="126.043" y1="129.936" x2="91.613" y2="208.854"/>
		
			<line fill="none" stroke="#DC3545" stroke-width="0.2" stroke-miterlimit="10" x1="91.613" y1="208.854" x2="67.84" y2="148.854"/>
		
			<line fill="none" stroke="#DC3545" stroke-width="0.2" stroke-miterlimit="10" x1="67.84" y1="148.854" x2="43.842" y2="212.789"/>
		
			<line fill="none" stroke="#DC3545" stroke-width="0.2" stroke-miterlimit="10" x1="67.84" y1="148.854" x2="154.055" y2="68.879"/>
		<line fill="none" stroke="#DC3545" stroke-width="0.2" stroke-miterlimit="10" x1="90.225" y1="64.151" x2="67.84" y2="148.854"/>
		
			<line fill="none" stroke="#DC3545" stroke-width="0.2" stroke-miterlimit="10" x1="90.225" y1="64.151" x2="154.055" y2="68.879"/>
		
			<line fill="none" stroke="#DC3545" stroke-width="0.2" stroke-miterlimit="10" x1="90.225" y1="64.151" x2="174.951" y2="102.664"/>
		
			<line fill="none" stroke="#DC3545" stroke-width="0.2" stroke-miterlimit="10" x1="90.225" y1="64.151" x2="126.043" y2="129.936"/>
		<line fill="none" stroke="#DC3545" stroke-width="0.2" stroke-miterlimit="10" x1="90.225" y1="64.151" x2="-13.67" y2="98.5"/>
		
			<line fill="none" stroke="#DC3545" stroke-width="0.2" stroke-miterlimit="10" x1="126.043" y1="129.936" x2="67.84" y2="148.854"/>
		
			<line fill="none" stroke="#DC3545" stroke-width="0.2" stroke-miterlimit="10" x1="126.043" y1="129.936" x2="229.809" y2="113.313"/>
		
			<line fill="none" stroke="#DC3545" stroke-width="0.2" stroke-miterlimit="10" x1="174.951" y1="102.664" x2="126.043" y2="129.936"/>
		
			<line fill="none" stroke="#DC3545" stroke-width="0.2" stroke-miterlimit="10" x1="174.951" y1="102.664" x2="224.307" y2="207.102"/>
		
			<line fill="none" stroke="#DC3545" stroke-width="0.2" stroke-miterlimit="10" x1="224.307" y1="207.102" x2="161.787" y2="191.359"/>
		
			<line fill="none" stroke="#DC3545" stroke-width="0.2" stroke-miterlimit="10" x1="161.787" y1="191.359" x2="91.613" y2="208.854"/>
		
			<line fill="none" stroke="#DC3545" stroke-width="0.2" stroke-miterlimit="10" x1="91.613" y1="208.854" x2="43.842" y2="212.789"/>
		
			<line fill="none" stroke="#DC3545" stroke-width="0.2" stroke-miterlimit="10" x1="224.307" y1="207.102" x2="297.301" y2="105.893"/>
		
			<line fill="none" stroke="#DC3545" stroke-width="0.2" stroke-miterlimit="10" x1="297.301" y1="105.893" x2="307.83" y2="108.866"/>
		
			<line fill="none" stroke="#DC3545" stroke-width="0.2" stroke-miterlimit="10" x1="307.83" y1="108.866" x2="318.224" y2="111.801"/>
		
			<line fill="none" stroke="#DC3545" stroke-width="0.2" stroke-miterlimit="10" x1="229.809" y1="113.313" x2="310.33" y2="160.646"/>
		
			<line fill="none" stroke="#DC3545" stroke-width="0.2" stroke-miterlimit="10" x1="229.809" y1="113.313" x2="297.301" y2="105.893"/>
		
			<line fill="none" stroke="#DC3545" stroke-width="0.2" stroke-miterlimit="10" x1="224.307" y1="207.102" x2="311.58" y2="199.23"/>
		
			<line fill="none" stroke="#DC3545" stroke-width="0.2" stroke-miterlimit="10" x1="229.809" y1="113.313" x2="224.307" y2="207.102"/>
		<line fill="none" stroke="#DC3545" stroke-width="0.2" stroke-miterlimit="10" x1="67.84" y1="148.854" x2="-7.67" y2="116.299"/>
		<line fill="none" stroke="#DC3545" stroke-width="0.2" stroke-miterlimit="10" x1="67.84" y1="148.854" x2="-5.42" y2="156.497"/>
		
			<line fill="none" stroke="#DC3545" stroke-width="0.2" stroke-miterlimit="10" x1="43.842" y1="212.789" x2="-9.42" y2="191.359"/>
		<line fill="none" stroke="#DC3545" stroke-width="0.2" stroke-miterlimit="10" x1="43.842" y1="212.789" x2="-9.42" y2="164.5"/>
		
			<line fill="none" stroke="#DC3545" stroke-width="0.2" stroke-miterlimit="10" x1="174.951" y1="102.664" x2="229.809" y2="113.313"/>
		
			<line fill="none" stroke="#DC3545" stroke-width="0.2" stroke-miterlimit="10" x1="174.951" y1="102.664" x2="154.055" y2="68.879"/>
		
			<line fill="none" stroke="#DC3545" stroke-width="0.2" stroke-miterlimit="10" x1="297.301" y1="105.893" x2="161.787" y2="191.359"/>
		<circle fill="#DC3545" cx="297.301" cy="105.893" r="0.855"/>
		<circle fill="#DC3545" cx="229.809" cy="113.313" r="0.855"/>
		<circle fill="#DC3545" cx="224.307" cy="207.102" r="0.855"/>
		<circle fill="#DC3545" cx="161.787" cy="191.359" r="0.855"/>
		<circle fill="#DC3545" cx="91.613" cy="208.854" r="0.855"/>
		<circle fill="#DC3545" cx="43.842" cy="212.788" r="0.854"/>
		<circle fill="#DC3545" cx="67.84" cy="148.893" r="0.855"/>
		<circle fill="#DC3545" cx="90.225" cy="64.15" r="0.855"/>
		<circle fill="#DC3545" cx="154.055" cy="68.879" r="0.855"/>
		<circle fill="#DC3545" cx="174.951" cy="102.663" r="0.855"/>
		<circle fill="#DC3545" cx="126.043" cy="129.934" r="0.855"/>
	</g>
</g>
<g>
	<line fill="none" stroke="#0C1D30" stroke-width="0.2" stroke-miterlimit="10" x1="139.25" y1="99.635" x2="169.71" y2="169.301"/>
	
		<line fill="none" stroke="#0C1D30" stroke-width="0.2" stroke-miterlimit="10" x1="169.71" y1="169.301" x2="125.051" y2="144.02"/>
	
		<line fill="none" stroke="#0C1D30" stroke-width="0.2" stroke-miterlimit="10" x1="125.051" y1="144.02" x2="103.007" y2="197.251"/>
	
		<line fill="none" stroke="#0C1D30" stroke-width="0.2" stroke-miterlimit="10" x1="103.007" y1="197.251" x2="30.397" y2="131.253"/>
	
		<line fill="none" stroke="#0C1D30" stroke-width="0.2" stroke-miterlimit="10" x1="30.397" y1="131.253" x2="56.388" y2="208.396"/>
	<line fill="none" stroke="#0C1D30" stroke-width="0.2" stroke-miterlimit="10" x1="30.397" y1="131.253" x2="93.464" y2="79.417"/>
	<line fill="none" stroke="#0C1D30" stroke-width="0.2" stroke-miterlimit="10" x1="39.657" y1="94.438" x2="30.397" y2="131.253"/>
	<line fill="none" stroke="#0C1D30" stroke-width="0.2" stroke-miterlimit="10" x1="39.657" y1="94.438" x2="93.464" y2="79.417"/>
	<line fill="none" stroke="#0C1D30" stroke-width="0.2" stroke-miterlimit="10" x1="39.657" y1="94.438" x2="139.25" y2="99.635"/>
	<line fill="none" stroke="#0C1D30" stroke-width="0.2" stroke-miterlimit="10" x1="39.657" y1="94.438" x2="125.051" y2="144.02"/>
	<line fill="none" stroke="#0C1D30" stroke-width="0.2" stroke-miterlimit="10" x1="39.657" y1="94.438" x2="-17.815" y2="82.169"/>
	
		<line fill="none" stroke="#0C1D30" stroke-width="0.2" stroke-miterlimit="10" x1="125.051" y1="144.02" x2="30.397" y2="131.253"/>
	
		<line fill="none" stroke="#0C1D30" stroke-width="0.2" stroke-miterlimit="10" x1="125.051" y1="144.02" x2="183.088" y2="88.828"/>
	<line fill="none" stroke="#0C1D30" stroke-width="0.2" stroke-miterlimit="10" x1="139.25" y1="99.635" x2="125.051" y2="144.02"/>
	
		<line fill="none" stroke="#0C1D30" stroke-width="0.2" stroke-miterlimit="10" x1="139.25" y1="99.635" x2="243.896" y2="185.364"/>
	
		<line fill="none" stroke="#0C1D30" stroke-width="0.2" stroke-miterlimit="10" x1="243.896" y1="185.364" x2="169.71" y2="169.301"/>
	
		<line fill="none" stroke="#0C1D30" stroke-width="0.2" stroke-miterlimit="10" x1="169.71" y1="169.301" x2="103.007" y2="197.251"/>
	
		<line fill="none" stroke="#0C1D30" stroke-width="0.2" stroke-miterlimit="10" x1="103.007" y1="197.251" x2="56.388" y2="208.396"/>
	
		<line fill="none" stroke="#0C1D30" stroke-width="0.2" stroke-miterlimit="10" x1="243.896" y1="185.364" x2="260.67" y2="104.242"/>
	
		<line fill="none" stroke="#0C1D30" stroke-width="0.2" stroke-miterlimit="10" x1="260.67" y1="104.242" x2="301.529" y2="95.583"/>
	
		<line fill="none" stroke="#0C1D30" stroke-width="0.2" stroke-miterlimit="10" x1="301.529" y1="95.583" x2="312.247" y2="96.904"/>
	
		<line fill="none" stroke="#0C1D30" stroke-width="0.2" stroke-miterlimit="10" x1="243.896" y1="185.364" x2="301.529" y2="95.583"/>
	
		<line fill="none" stroke="#0C1D30" stroke-width="0.2" stroke-miterlimit="10" x1="183.088" y1="88.828" x2="311.865" y2="146.382"/>
	
		<line fill="none" stroke="#0C1D30" stroke-width="0.2" stroke-miterlimit="10" x1="183.088" y1="88.828" x2="260.67" y2="104.242"/>
	
		<line fill="none" stroke="#0C1D30" stroke-width="0.2" stroke-miterlimit="10" x1="243.896" y1="185.364" x2="318.961" y2="184.328"/>
	
		<line fill="none" stroke="#0C1D30" stroke-width="0.2" stroke-miterlimit="10" x1="183.088" y1="88.828" x2="243.896" y2="185.364"/>
	
		<line fill="none" stroke="#0C1D30" stroke-width="0.2" stroke-miterlimit="10" x1="30.397" y1="131.253" x2="-9.182" y2="110.851"/>
	<line fill="none" stroke="#0C1D30" stroke-width="0.2" stroke-miterlimit="10" x1="30.397" y1="131.253" x2="-0.852" y2="150.24"/>
	<line fill="none" stroke="#0C1D30" stroke-width="0.2" stroke-miterlimit="10" x1="56.388" y1="208.396" x2="-9.51" y2="215"/>
	<line fill="none" stroke="#0C1D30" stroke-width="0.2" stroke-miterlimit="10" x1="56.388" y1="208.396" x2="-3.59" y2="168.758"/>
	<line fill="none" stroke="#0C1D30" stroke-width="0.2" stroke-miterlimit="10" x1="139.25" y1="99.635" x2="183.088" y2="88.828"/>
	<line fill="none" stroke="#0C1D30" stroke-width="0.2" stroke-miterlimit="10" x1="139.25" y1="99.635" x2="93.464" y2="79.417"/>
	
		<line fill="none" stroke="#0C1D30" stroke-width="0.2" stroke-miterlimit="10" x1="260.67" y1="104.242" x2="169.71" y2="169.301"/>
	<circle fill="#0C1D30" cx="260.67" cy="104.244" r="0.855"/>
	<circle fill="#0C1D30" cx="183.088" cy="88.828" r="0.855"/>
	<circle fill="#0C1D30" cx="243.896" cy="185.365" r="0.856"/>
	<circle fill="#0C1D30" cx="169.71" cy="169.301" r="0.855"/>
	<circle fill="#0C1D30" cx="103.008" cy="197.252" r="0.855"/>
	<circle fill="#0C1D30" cx="56.388" cy="208.396" r="0.854"/>
	<circle fill="#0C1D30" cx="30.403" cy="131.292" r="0.855"/>
	<circle fill="#0C1D30" cx="39.657" cy="94.438" r="0.856"/>
	<circle fill="#0C1D30" cx="93.465" cy="79.416" r="0.855"/>
	<circle fill="#0C1D30" cx="139.25" cy="99.635" r="0.855"/>
	<circle fill="#0C1D30" cx="125.051" cy="144.018" r="0.855"/>
	<circle fill="#0C1D30" cx="301.53" cy="95.583" r="0.855"/>
</g>
</svg>
