<?xml version="1.0" encoding="utf-8"?>
<!-- Generator: Adobe Illustrator 16.0.3, SVG Export Plug-In . SVG Version: 6.00 Build 0)  -->
<!DOCTYPE svg PUBLIC "-//W3C//DTD SVG 1.1//EN" "http://www.w3.org/Graphics/SVG/1.1/DTD/svg11.dtd">
<svg version="1.1" xmlns="http://www.w3.org/2000/svg" xmlns:xlink="http://www.w3.org/1999/xlink" x="0px" y="0px" width="750px"
	 height="500px" viewBox="0 0 750 500" enable-background="new 0 0 750 500" xml:space="preserve">
<g id="BACKGROUND">
	
		<radialGradient id="SVGID_1_" cx="375" cy="250" r="558.6741" gradientTransform="matrix(1 0 0 0.5655 0 108.6137)" gradientUnits="userSpaceOnUse">
		<stop  offset="0" style="stop-color:#59006C"/>
		<stop  offset="1" style="stop-color:#140034"/>
	</radialGradient>
	<rect fill="url(#SVGID_1_)" width="750" height="500"/>
</g>
<g id="OBJECTS">
	<g>
		<g>
			<defs>
				<rect id="SVGID_2_" width="750" height="500"/>
			</defs>
			<clipPath id="SVGID_3_">
				<use xlink:href="#SVGID_2_"  overflow="visible"/>
			</clipPath>
			
				<linearGradient id="SVGID_4_" gradientUnits="userSpaceOnUse" x1="433.1006" y1="0.9468" x2="450.8447" y2="151.4129" gradientTransform="matrix(0.9925 -0.122 0.122 0.9925 -116.8195 294.708)">
				<stop  offset="0" style="stop-color:#360076"/>
				<stop  offset="1" style="stop-color:#140034"/>
			</linearGradient>
			<path opacity="0.33" clip-path="url(#SVGID_3_)" fill="url(#SVGID_4_)" d="M-71.962,488.653
				c34.607,30.5,89.041,26.822,130.069,5.738s72.901-51.508,107.035-82.536c49.648-45.132,83.205-86.011,149.048-98.918
				c35.703-6.999,71.549,2.955,106.977,6.866c33.273,3.674,68.47-2.47,95.821-22.663c21.399-15.799,36.374-38.74,48.921-62.195
				s23.206-48.039,38.31-69.935c13.148-19.063,30.18-36.279,51.635-44.995c15.138-6.15,31.903-7.698,48.025-5.432
				c6.969,0.979,13.731,2.612,20.229,5.31c3.341,1.387,18.597,7.363,19.124,11.356c0,0,41.511,312.772,41.511,312.772
				L-69.384,548.983L-71.962,488.653z"/>
			
				<linearGradient id="SVGID_5_" gradientUnits="userSpaceOnUse" x1="139.2446" y1="55.1846" x2="156.9887" y2="205.6499" gradientTransform="matrix(-0.8034 0.5954 0.5954 0.8034 408.1891 100.6931)">
				<stop  offset="0" style="stop-color:#360076"/>
				<stop  offset="1" style="stop-color:#140034"/>
			</linearGradient>
			<path opacity="0.33" clip-path="url(#SVGID_3_)" fill="url(#SVGID_5_)" d="M777.685,140.79
				c-4.069,45.949-46.056,80.787-90.319,93.773s-88.325,12.895-134.443,13.923c-67.079,1.496-119.564-5.013-176.18,30.996
				c-30.699,19.526-49.821,51.438-72.804,78.682c-21.585,25.587-51.328,45.384-85.064,49.592
				c-26.395,3.293-53.055-3.017-78.308-11.372s-49.917-18.829-75.95-24.294c-22.664-4.756-46.869-5.501-68.424,2.964
				c-15.208,5.973-28.427,16.401-38.551,29.152c-4.376,5.511-8.153,11.353-11.004,17.786c-1.466,3.307-8.405,18.148-6.037,21.407
				l185.407,255.292l691.373-512.398L777.685,140.79z"/>
			<linearGradient id="SVGID_6_" gradientUnits="userSpaceOnUse" x1="377.7764" y1="355.7266" x2="410.0975" y2="475.3322">
				<stop  offset="0.0083" style="stop-color:#73005F"/>
				<stop  offset="1" style="stop-color:#140034"/>
			</linearGradient>
			<path clip-path="url(#SVGID_3_)" fill="url(#SVGID_6_)" d="M686.434,288.779c-37.026,4-72.572,20.274-100.077,45.335
				c-22.392,20.402-40.011,46.57-66.131,61.911c-61.183,35.935-131.554-0.724-196.285,1.614
				c-173.024,6.246-166.2,109.25-270.2,120.25c-63.669,6.734,665.578,84.81,665.578,84.81s5.116-19.787,12.679-49.045v-264.21
				C716.928,287.369,701.506,287.15,686.434,288.779z"/>
			
				<linearGradient id="SVGID_7_" gradientUnits="userSpaceOnUse" x1="3974.0029" y1="1600.7119" x2="3986.761" y2="1708.897" gradientTransform="matrix(-0.9918 0.128 -0.128 -0.9918 4403.9297 1273.9363)">
				<stop  offset="0" style="stop-color:#360076"/>
				<stop  offset="1" style="stop-color:#140034"/>
			</linearGradient>
			<path opacity="0.33" clip-path="url(#SVGID_3_)" fill="url(#SVGID_7_)" d="M519.392-0.868l2.673-25.787L-73.58,50.197
				l31.206,224.71c0.397,2.869,11.392,7.1,13.8,8.083c4.684,1.912,9.554,3.056,14.568,3.73c11.603,1.559,23.651,0.373,34.509-4.114
				c15.388-6.36,27.559-18.813,36.931-32.577c10.765-15.81,18.322-33.532,27.242-50.452c8.919-16.919,19.587-33.479,34.906-44.932
				c19.578-14.638,44.859-19.208,68.799-16.712c25.49,2.659,51.307,9.66,76.948,4.473c47.287-9.567,71.237-39.105,106.74-71.772
				c24.409-22.458,47.193-44.473,76.602-59.811c21.435-11.179,48.022-15.727,70.554-8.947C519.25,0.961,519.297,0.045,519.392-0.868
				z"/>
			
				<linearGradient id="SVGID_8_" gradientUnits="userSpaceOnUse" x1="3995.8086" y1="1565.6699" x2="4009.0427" y2="1677.8916" gradientTransform="matrix(0.6052 -0.7961 -0.7961 -0.6052 -892.9866 4352.2358)">
				<stop  offset="0" style="stop-color:#360076"/>
				<stop  offset="1" style="stop-color:#140034"/>
			</linearGradient>
			<path opacity="0.33" clip-path="url(#SVGID_3_)" fill="url(#SVGID_8_)" d="M-32.657,357.771l-24.573-10.927l377.035-495.948
				L505.761-4.875c2.375,1.84,0.496,13.915,0.136,16.589c-0.703,5.201-2.191,10.172-4.178,15.03
				c-4.596,11.24-11.891,21.462-21.539,28.907c-13.675,10.551-31.166,15.059-48.388,16.373c-19.783,1.508-39.628-0.857-59.455-1.582
				c-19.827-0.725-40.234,0.308-58.453,8.164c-23.286,10.04-40.465,30.413-50.595,53.234
				c-10.787,24.298-17.836,51.136-35.756,71.514c-33.049,37.581-71.995,43.85-119.726,58.891
				c-32.816,10.342-64.392,19.452-93.389,37.971c-21.134,13.497-38.968,35.058-44.519,58.825
				C-30.938,358.589-31.786,358.157-32.657,357.771z"/>
			
				<linearGradient id="SVGID_9_" gradientUnits="userSpaceOnUse" x1="4066.3789" y1="1456.3799" x2="4089.6191" y2="1542.381" gradientTransform="matrix(-1 0 0 -1 4286.3672 1578.2949)">
				<stop  offset="0.0083" style="stop-color:#73005F"/>
				<stop  offset="1" style="stop-color:#140034"/>
			</linearGradient>
			<path clip-path="url(#SVGID_3_)" fill="url(#SVGID_9_)" d="M-1.947,170.054c26.624-2.877,52.182-14.578,71.959-32.598
				c16.1-14.67,28.769-33.486,47.551-44.517c43.993-25.838,94.592,0.521,141.136-1.16c124.411-4.492,119.504-78.555,194.284-86.464
				c45.78-4.842-478.577-60.981-478.577-60.981s-3.678,14.228-9.116,35.266v189.977C-23.874,171.067-12.785,171.225-1.947,170.054z"
				/>
			
				<linearGradient id="SVGID_10_" gradientUnits="userSpaceOnUse" x1="652.8594" y1="805.0137" x2="373.3642" y2="539.4932" gradientTransform="matrix(0.9906 0.1367 -0.1367 0.9906 165.8334 -331.8276)">
				<stop  offset="0" style="stop-color:#311445"/>
				<stop  offset="0.1151" style="stop-color:#401347"/>
				<stop  offset="0.3357" style="stop-color:#660F4B"/>
				<stop  offset="0.6391" style="stop-color:#A50852"/>
				<stop  offset="1" style="stop-color:#F8005C"/>
			</linearGradient>
			<path clip-path="url(#SVGID_3_)" fill="url(#SVGID_10_)" d="M809.882,83.758c-0.958-11.062-78.532,18.009-85.489,20.638
				c-41.665,15.745-79.375,42.669-97.51,85.163c-16.149,37.843-0.844,61.436,16.559,94.208
				c26.575,50.044,19.151,131.137-50.716,135.978c-67.579,4.681-143.843-91.25-203.29-10.159
				c-28.851,39.355-84.678,60.536-133.595,46.376c-28.79-8.334-73.042,19.427-77.14,49.116l26.38,7.759l561.021,63.148
				l52.708-381.874C818.81,194.111,809.895,83.923,809.882,83.758z"/>
			<linearGradient id="SVGID_11_" gradientUnits="userSpaceOnUse" x1="720.9404" y1="546.793" x2="490.4158" y2="334.7716">
				<stop  offset="0" style="stop-color:#311445"/>
				<stop  offset="0.0765" style="stop-color:#401347"/>
				<stop  offset="0.2232" style="stop-color:#660F4B"/>
				<stop  offset="0.4249" style="stop-color:#A50852"/>
				<stop  offset="0.6649" style="stop-color:#F8005C"/>
				<stop  offset="0.7175" style="stop-color:#F8065C"/>
				<stop  offset="0.7878" style="stop-color:#F9175D"/>
				<stop  offset="0.8683" style="stop-color:#FB335F"/>
				<stop  offset="0.9555" style="stop-color:#FE5962"/>
				<stop  offset="1" style="stop-color:#FF7063"/>
			</linearGradient>
			<path clip-path="url(#SVGID_3_)" fill="url(#SVGID_11_)" d="M764.922,255.751c0,0-109.753-47.517-115.648,92.515
				c-3.771,89.567-61.293,95.67-170.556,68.686c-113.355-27.995-151.309,99.39-151.309,99.39h437.513V255.751z"/>
			<linearGradient id="SVGID_12_" gradientUnits="userSpaceOnUse" x1="728.8662" y1="578.9502" x2="542.287" y2="364.6156">
				<stop  offset="0" style="stop-color:#311445"/>
				<stop  offset="0.0765" style="stop-color:#401347"/>
				<stop  offset="0.2232" style="stop-color:#660F4B"/>
				<stop  offset="0.4249" style="stop-color:#A50852"/>
				<stop  offset="0.6649" style="stop-color:#F8005C"/>
				<stop  offset="0.7175" style="stop-color:#F8065C"/>
				<stop  offset="0.7878" style="stop-color:#F9175D"/>
				<stop  offset="0.8683" style="stop-color:#FB335F"/>
				<stop  offset="0.9555" style="stop-color:#FE5962"/>
				<stop  offset="1" style="stop-color:#FF7063"/>
			</linearGradient>
			<path clip-path="url(#SVGID_3_)" fill="url(#SVGID_12_)" d="M393.2,516.341c0,0,4.111-55.254,65.495-65.534
				c56.958-9.539,141.644,53.198,168.628-10.794c26.985-63.992,94.318-11.308,89.436-89.435
				c-3.259-52.127,48.163-53.198,48.163-53.198v218.961H393.2z"/>
			<linearGradient id="SVGID_13_" gradientUnits="userSpaceOnUse" x1="59.7876" y1="-66.2412" x2="164.7877" y2="112.5869">
				<stop  offset="0" style="stop-color:#311445"/>
				<stop  offset="0.0769" style="stop-color:#361346"/>
				<stop  offset="0.1723" style="stop-color:#461247"/>
				<stop  offset="0.2774" style="stop-color:#5F0F4A"/>
				<stop  offset="0.3895" style="stop-color:#820C4E"/>
				<stop  offset="0.5072" style="stop-color:#AF0754"/>
				<stop  offset="0.6279" style="stop-color:#E6025A"/>
				<stop  offset="0.6649" style="stop-color:#F8005C"/>
				<stop  offset="0.7175" style="stop-color:#F8065C"/>
				<stop  offset="0.7878" style="stop-color:#F9175D"/>
				<stop  offset="0.8683" style="stop-color:#FB335F"/>
				<stop  offset="0.9555" style="stop-color:#FE5962"/>
				<stop  offset="1" style="stop-color:#FF7063"/>
			</linearGradient>
			<path clip-path="url(#SVGID_3_)" fill="url(#SVGID_13_)" d="M-21.74,187.592c0,0,85.706,37.106,90.31-72.244
				c2.944-69.943,47.864-74.709,133.187-53.637c88.519,21.861,118.157-77.613,118.157-77.613H-21.74V187.592z"/>
			<linearGradient id="SVGID_14_" gradientUnits="userSpaceOnUse" x1="44.7681" y1="-76.8604" x2="107.6218" y2="51.2188">
				<stop  offset="0" style="stop-color:#311445"/>
				<stop  offset="0.059" style="stop-color:#401347"/>
				<stop  offset="0.1721" style="stop-color:#660F4B"/>
				<stop  offset="0.3277" style="stop-color:#A50852"/>
				<stop  offset="0.5128" style="stop-color:#F8005C"/>
				<stop  offset="0.5893" style="stop-color:#F8065C"/>
				<stop  offset="0.6916" style="stop-color:#F9175D"/>
				<stop  offset="0.8085" style="stop-color:#FB335F"/>
				<stop  offset="0.9353" style="stop-color:#FE5962"/>
				<stop  offset="1" style="stop-color:#FF7063"/>
			</linearGradient>
			<path clip-path="url(#SVGID_3_)" fill="url(#SVGID_14_)" d="M255.016-11.92c0,0-3.062,41.138-48.763,48.792
				c-42.407,7.102-105.457-39.607-125.548,8.036s-70.222,8.419-66.586,66.586c2.426,38.81-35.859,39.607-35.859,39.607V-11.92
				H255.016z"/>
			<g clip-path="url(#SVGID_3_)">
			</g>
			<g clip-path="url(#SVGID_3_)">
				<linearGradient id="SVGID_15_" gradientUnits="userSpaceOnUse" x1="560.0088" y1="50.8125" x2="660.0088" y2="50.8125">
					<stop  offset="0" style="stop-color:#FFFFFF;stop-opacity:0"/>
					<stop  offset="1" style="stop-color:#FFFFFF"/>
				</linearGradient>
				<path fill="url(#SVGID_15_)" d="M561.009,100.813c-0.256,0-0.512-0.098-0.707-0.293c-0.391-0.391-0.391-1.023,0-1.414l98-98
					c0.391-0.391,1.023-0.391,1.414,0s0.391,1.023,0,1.414l-98,98C561.521,100.715,561.265,100.813,561.009,100.813z"/>
			</g>
			<g clip-path="url(#SVGID_3_)">
				<linearGradient id="SVGID_16_" gradientUnits="userSpaceOnUse" x1="507.0684" y1="313.8623" x2="607.0684" y2="313.8623">
					<stop  offset="0" style="stop-color:#FFFFFF;stop-opacity:0"/>
					<stop  offset="1" style="stop-color:#FFFFFF"/>
				</linearGradient>
				<path fill="url(#SVGID_16_)" d="M508.068,363.862c-0.256,0-0.512-0.098-0.707-0.293c-0.391-0.391-0.391-1.023,0-1.414l98-98
					c0.391-0.391,1.023-0.391,1.414,0s0.391,1.023,0,1.414l-98,98C508.58,363.765,508.324,363.862,508.068,363.862z"/>
			</g>
			<g clip-path="url(#SVGID_3_)">
				<linearGradient id="SVGID_17_" gradientUnits="userSpaceOnUse" x1="249.6914" y1="182.0972" x2="349.6914" y2="182.0972">
					<stop  offset="0" style="stop-color:#FFFFFF;stop-opacity:0"/>
					<stop  offset="1" style="stop-color:#FFFFFF"/>
				</linearGradient>
				<path fill="url(#SVGID_17_)" d="M250.691,232.097c-0.256,0-0.512-0.098-0.707-0.293c-0.391-0.391-0.391-1.023,0-1.414l98-98
					c0.391-0.391,1.023-0.391,1.414,0s0.391,1.023,0,1.414l-98,98C251.203,232,250.947,232.097,250.691,232.097z"/>
			</g>
			<g clip-path="url(#SVGID_3_)">
				<linearGradient id="SVGID_18_" gradientUnits="userSpaceOnUse" x1="335.311" y1="341.1055" x2="435.3115" y2="341.1055">
					<stop  offset="0" style="stop-color:#FFFFFF;stop-opacity:0"/>
					<stop  offset="1" style="stop-color:#FFFFFF"/>
				</linearGradient>
				<path fill="url(#SVGID_18_)" d="M336.311,391.105c-0.256,0-0.512-0.098-0.707-0.293c-0.391-0.391-0.391-1.023,0-1.414l98-98
					c0.391-0.391,1.023-0.391,1.414,0s0.391,1.023,0,1.414l-98,98C336.823,391.008,336.567,391.105,336.311,391.105z"/>
			</g>
			<g clip-path="url(#SVGID_3_)">
				<linearGradient id="SVGID_19_" gradientUnits="userSpaceOnUse" x1="675.0723" y1="134.5308" x2="775.0723" y2="134.5308">
					<stop  offset="0" style="stop-color:#FFFFFF;stop-opacity:0"/>
					<stop  offset="1" style="stop-color:#FFFFFF"/>
				</linearGradient>
				<path fill="url(#SVGID_19_)" d="M676.072,184.531c-0.256,0-0.512-0.098-0.707-0.293c-0.391-0.391-0.391-1.023,0-1.414l98-98
					c0.391-0.391,1.023-0.391,1.414,0s0.391,1.023,0,1.414l-98,98C676.584,184.433,676.328,184.531,676.072,184.531z"/>
			</g>
			<g clip-path="url(#SVGID_3_)">
				<linearGradient id="SVGID_20_" gradientUnits="userSpaceOnUse" x1="566.3486" y1="494.6777" x2="666.3486" y2="494.6777">
					<stop  offset="0" style="stop-color:#FFFFFF;stop-opacity:0"/>
					<stop  offset="1" style="stop-color:#FFFFFF"/>
				</linearGradient>
				<path fill="url(#SVGID_20_)" d="M567.349,544.677c-0.256,0-0.512-0.097-0.707-0.292c-0.391-0.392-0.391-1.024,0-1.415l98-97.999
					c0.391-0.391,1.023-0.391,1.414,0c0.391,0.39,0.391,1.022,0,1.414l-98,98C567.86,544.58,567.604,544.677,567.349,544.677z"/>
			</g>
			<g clip-path="url(#SVGID_3_)">
				<linearGradient id="SVGID_21_" gradientUnits="userSpaceOnUse" x1="22.731" y1="66.5786" x2="122.731" y2="66.5786">
					<stop  offset="0" style="stop-color:#FFFFFF;stop-opacity:0"/>
					<stop  offset="1" style="stop-color:#FFFFFF"/>
				</linearGradient>
				<path fill="url(#SVGID_21_)" d="M23.731,116.579c-0.256,0-0.512-0.098-0.707-0.293c-0.391-0.391-0.391-1.023,0-1.414l98-98
					c0.391-0.391,1.023-0.391,1.414,0s0.391,1.023,0,1.414l-98,98C24.243,116.481,23.987,116.579,23.731,116.579z"/>
			</g>
			<g clip-path="url(#SVGID_3_)">
				<linearGradient id="SVGID_22_" gradientUnits="userSpaceOnUse" x1="-18.04" y1="433.5205" x2="81.96" y2="433.5205">
					<stop  offset="0" style="stop-color:#FFFFFF;stop-opacity:0"/>
					<stop  offset="1" style="stop-color:#FFFFFF"/>
				</linearGradient>
				<path fill="url(#SVGID_22_)" d="M-17.04,483.521c-0.256,0-0.512-0.098-0.707-0.293c-0.391-0.391-0.391-1.023,0-1.414l98-98
					c0.391-0.391,1.023-0.391,1.414,0s0.391,1.023,0,1.414l-98,98C-16.528,483.423-16.784,483.521-17.04,483.521z"/>
			</g>
			<g clip-path="url(#SVGID_3_)">
				<linearGradient id="SVGID_23_" gradientUnits="userSpaceOnUse" x1="131.3486" y1="443.8096" x2="231.3486" y2="443.8096">
					<stop  offset="0" style="stop-color:#FFFFFF;stop-opacity:0"/>
					<stop  offset="1" style="stop-color:#FFFFFF"/>
				</linearGradient>
				<path fill="url(#SVGID_23_)" d="M132.349,493.81c-0.256,0-0.512-0.098-0.707-0.293c-0.391-0.391-0.391-1.023,0-1.413l98-98
					c0.391-0.392,1.023-0.392,1.414,0c0.391,0.39,0.391,1.022,0,1.413l-98,98C132.86,493.712,132.604,493.81,132.349,493.81z"/>
			</g>
			<g clip-path="url(#SVGID_3_)">
				<linearGradient id="SVGID_24_" gradientUnits="userSpaceOnUse" x1="20.6733" y1="241.0693" x2="120.6733" y2="241.0693">
					<stop  offset="0" style="stop-color:#FFFFFF;stop-opacity:0"/>
					<stop  offset="1" style="stop-color:#FFFFFF"/>
				</linearGradient>
				<path fill="url(#SVGID_24_)" d="M21.673,291.069c-0.256,0-0.512-0.099-0.707-0.294c-0.391-0.39-0.391-1.022,0-1.414l98-98
					c0.391-0.391,1.023-0.391,1.414,0s0.391,1.023,0,1.414l-98,98C22.185,290.971,21.929,291.069,21.673,291.069z"/>
			</g>
			<g clip-path="url(#SVGID_3_)">
				<linearGradient id="SVGID_25_" gradientUnits="userSpaceOnUse" x1="321.7749" y1="59.0845" x2="421.7744" y2="59.0845">
					<stop  offset="0" style="stop-color:#FFFFFF;stop-opacity:0"/>
					<stop  offset="1" style="stop-color:#FFFFFF"/>
				</linearGradient>
				<path fill="url(#SVGID_25_)" d="M322.775,109.084c-0.256,0-0.512-0.098-0.707-0.293c-0.391-0.391-0.391-1.023,0-1.414l98-98
					c0.391-0.391,1.023-0.391,1.414,0s0.391,1.023,0,1.414l-98,98C323.287,108.987,323.031,109.084,322.775,109.084z"/>
			</g>
		</g>
	</g>
</g>
</svg>
