<?xml version="1.0" encoding="utf-8"?>
<!-- Generator: Adobe Illustrator 16.0.0, SVG Export Plug-In . SVG Version: 6.00 Build 0)  -->
<!DOCTYPE svg PUBLIC "-//W3C//DTD SVG 1.1//EN" "http://www.w3.org/Graphics/SVG/1.1/DTD/svg11.dtd">
<svg version="1.1" xmlns="http://www.w3.org/2000/svg" xmlns:xlink="http://www.w3.org/1999/xlink" x="0px" y="0px"
	 width="308.137px" height="245px" viewBox="0 0 308.137 245" enable-background="new 0 0 308.137 245" xml:space="preserve">
<g id="Capa_4" display="none">
	<g display="inline">
		
			<line fill="none" stroke="#20C997" stroke-width="0.2" stroke-miterlimit="10" x1="174.951" y1="102.664" x2="161.787" y2="191.359"/>
		
			<line fill="none" stroke="#20C997" stroke-width="0.2" stroke-miterlimit="10" x1="161.787" y1="191.359" x2="126.043" y2="129.935"/>
		
			<line fill="none" stroke="#20C997" stroke-width="0.2" stroke-miterlimit="10" x1="126.043" y1="129.935" x2="91.613" y2="208.854"/>
		
			<line fill="none" stroke="#20C997" stroke-width="0.2" stroke-miterlimit="10" x1="91.613" y1="208.854" x2="67.84" y2="148.854"/>
		
			<line fill="none" stroke="#20C997" stroke-width="0.2" stroke-miterlimit="10" x1="67.84" y1="148.854" x2="43.842" y2="212.789"/>
		
			<line fill="none" stroke="#20C997" stroke-width="0.2" stroke-miterlimit="10" x1="67.84" y1="148.854" x2="154.055" y2="68.879"/>
		<line fill="none" stroke="#20C997" stroke-width="0.2" stroke-miterlimit="10" x1="90.225" y1="64.151" x2="67.84" y2="148.854"/>
		
			<line fill="none" stroke="#20C997" stroke-width="0.2" stroke-miterlimit="10" x1="90.225" y1="64.151" x2="154.055" y2="68.879"/>
		
			<line fill="none" stroke="#20C997" stroke-width="0.2" stroke-miterlimit="10" x1="90.225" y1="64.151" x2="174.951" y2="102.664"/>
		
			<line fill="none" stroke="#20C997" stroke-width="0.2" stroke-miterlimit="10" x1="90.225" y1="64.151" x2="126.043" y2="129.935"/>
		<line fill="none" stroke="#20C997" stroke-width="0.2" stroke-miterlimit="10" x1="90.225" y1="64.151" x2="-13.67" y2="98.5"/>
		
			<line fill="none" stroke="#20C997" stroke-width="0.2" stroke-miterlimit="10" x1="126.043" y1="129.935" x2="67.84" y2="148.854"/>
		
			<line fill="none" stroke="#20C997" stroke-width="0.2" stroke-miterlimit="10" x1="126.043" y1="129.935" x2="229.809" y2="113.313"/>
		
			<line fill="none" stroke="#20C997" stroke-width="0.2" stroke-miterlimit="10" x1="174.951" y1="102.664" x2="126.043" y2="129.935"/>
		
			<line fill="none" stroke="#20C997" stroke-width="0.2" stroke-miterlimit="10" x1="174.951" y1="102.664" x2="224.307" y2="207.102"/>
		
			<line fill="none" stroke="#20C997" stroke-width="0.2" stroke-miterlimit="10" x1="224.307" y1="207.102" x2="161.787" y2="191.359"/>
		
			<line fill="none" stroke="#20C997" stroke-width="0.2" stroke-miterlimit="10" x1="161.787" y1="191.359" x2="91.613" y2="208.854"/>
		
			<line fill="none" stroke="#20C997" stroke-width="0.2" stroke-miterlimit="10" x1="91.613" y1="208.854" x2="43.842" y2="212.789"/>
		
			<line fill="none" stroke="#20C997" stroke-width="0.2" stroke-miterlimit="10" x1="224.307" y1="207.102" x2="297.301" y2="105.893"/>
		
			<line fill="none" stroke="#20C997" stroke-width="0.2" stroke-miterlimit="10" x1="297.301" y1="105.893" x2="307.83" y2="108.866"/>
		
			<line fill="none" stroke="#20C997" stroke-width="0.2" stroke-miterlimit="10" x1="307.83" y1="108.866" x2="318.224" y2="111.801"/>
		
			<line fill="none" stroke="#20C997" stroke-width="0.2" stroke-miterlimit="10" x1="229.809" y1="113.313" x2="310.33" y2="160.646"/>
		
			<line fill="none" stroke="#20C997" stroke-width="0.2" stroke-miterlimit="10" x1="229.809" y1="113.313" x2="297.301" y2="105.893"/>
		
			<line fill="none" stroke="#20C997" stroke-width="0.2" stroke-miterlimit="10" x1="224.307" y1="207.102" x2="311.58" y2="199.23"/>
		
			<line fill="none" stroke="#20C997" stroke-width="0.2" stroke-miterlimit="10" x1="229.809" y1="113.313" x2="224.307" y2="207.102"/>
		<line fill="none" stroke="#20C997" stroke-width="0.2" stroke-miterlimit="10" x1="67.84" y1="148.854" x2="-7.67" y2="116.299"/>
		<line fill="none" stroke="#20C997" stroke-width="0.2" stroke-miterlimit="10" x1="67.84" y1="148.854" x2="-5.42" y2="156.497"/>
		
			<line fill="none" stroke="#20C997" stroke-width="0.2" stroke-miterlimit="10" x1="43.842" y1="212.789" x2="-9.42" y2="191.359"/>
		<line fill="none" stroke="#20C997" stroke-width="0.2" stroke-miterlimit="10" x1="43.842" y1="212.789" x2="-9.42" y2="164.5"/>
		
			<line fill="none" stroke="#20C997" stroke-width="0.2" stroke-miterlimit="10" x1="174.951" y1="102.664" x2="229.809" y2="113.313"/>
		
			<line fill="none" stroke="#20C997" stroke-width="0.2" stroke-miterlimit="10" x1="174.951" y1="102.664" x2="154.055" y2="68.879"/>
		
			<line fill="none" stroke="#20C997" stroke-width="0.2" stroke-miterlimit="10" x1="297.301" y1="105.893" x2="161.787" y2="191.359"/>
		<circle fill="#20C997" cx="297.301" cy="105.893" r="0.855"/>
		<circle fill="#20C997" cx="229.809" cy="113.313" r="0.855"/>
		<circle fill="#20C997" cx="224.307" cy="207.102" r="0.855"/>
		<circle fill="#20C997" cx="161.787" cy="191.359" r="0.855"/>
		<circle fill="#20C997" cx="91.613" cy="208.854" r="0.855"/>
		<circle fill="#20C997" cx="43.842" cy="212.788" r="0.855"/>
		<circle fill="#20C997" cx="67.84" cy="148.893" r="0.855"/>
		<circle fill="#20C997" cx="90.225" cy="64.15" r="0.855"/>
		<circle fill="#20C997" cx="154.055" cy="68.879" r="0.855"/>
		<circle fill="#20C997" cx="174.951" cy="102.663" r="0.855"/>
		<circle fill="#20C997" cx="126.043" cy="129.934" r="0.855"/>
	</g>
</g>
<g id="Capa_2">
	<g>
		
			<line fill="none" stroke="#DC3545" stroke-width="0.2" stroke-miterlimit="10" x1="174.951" y1="102.664" x2="161.787" y2="191.359"/>
		
			<line fill="none" stroke="#DC3545" stroke-width="0.2" stroke-miterlimit="10" x1="161.787" y1="191.359" x2="126.043" y2="129.935"/>
		
			<line fill="none" stroke="#DC3545" stroke-width="0.2" stroke-miterlimit="10" x1="126.043" y1="129.935" x2="91.613" y2="208.854"/>
		
			<line fill="none" stroke="#DC3545" stroke-width="0.2" stroke-miterlimit="10" x1="91.613" y1="208.854" x2="67.84" y2="148.854"/>
		
			<line fill="none" stroke="#DC3545" stroke-width="0.2" stroke-miterlimit="10" x1="67.84" y1="148.854" x2="43.842" y2="212.789"/>
		
			<line fill="none" stroke="#DC3545" stroke-width="0.2" stroke-miterlimit="10" x1="67.84" y1="148.854" x2="154.055" y2="68.879"/>
		<line fill="none" stroke="#DC3545" stroke-width="0.2" stroke-miterlimit="10" x1="90.225" y1="64.151" x2="67.84" y2="148.854"/>
		
			<line fill="none" stroke="#DC3545" stroke-width="0.2" stroke-miterlimit="10" x1="90.225" y1="64.151" x2="154.055" y2="68.879"/>
		
			<line fill="none" stroke="#DC3545" stroke-width="0.2" stroke-miterlimit="10" x1="90.225" y1="64.151" x2="174.951" y2="102.664"/>
		
			<line fill="none" stroke="#DC3545" stroke-width="0.2" stroke-miterlimit="10" x1="90.225" y1="64.151" x2="126.043" y2="129.935"/>
		<line fill="none" stroke="#DC3545" stroke-width="0.2" stroke-miterlimit="10" x1="90.225" y1="64.151" x2="-13.67" y2="98.5"/>
		
			<line fill="none" stroke="#DC3545" stroke-width="0.2" stroke-miterlimit="10" x1="126.043" y1="129.935" x2="67.84" y2="148.854"/>
		
			<line fill="none" stroke="#DC3545" stroke-width="0.2" stroke-miterlimit="10" x1="126.043" y1="129.935" x2="229.809" y2="113.313"/>
		
			<line fill="none" stroke="#DC3545" stroke-width="0.2" stroke-miterlimit="10" x1="174.951" y1="102.664" x2="126.043" y2="129.935"/>
		
			<line fill="none" stroke="#DC3545" stroke-width="0.2" stroke-miterlimit="10" x1="174.951" y1="102.664" x2="224.307" y2="207.102"/>
		
			<line fill="none" stroke="#DC3545" stroke-width="0.2" stroke-miterlimit="10" x1="224.307" y1="207.102" x2="161.787" y2="191.359"/>
		
			<line fill="none" stroke="#DC3545" stroke-width="0.2" stroke-miterlimit="10" x1="161.787" y1="191.359" x2="91.613" y2="208.854"/>
		
			<line fill="none" stroke="#DC3545" stroke-width="0.2" stroke-miterlimit="10" x1="91.613" y1="208.854" x2="43.842" y2="212.789"/>
		
			<line fill="none" stroke="#DC3545" stroke-width="0.2" stroke-miterlimit="10" x1="224.307" y1="207.102" x2="297.301" y2="105.893"/>
		
			<line fill="none" stroke="#DC3545" stroke-width="0.2" stroke-miterlimit="10" x1="297.301" y1="105.893" x2="307.83" y2="108.866"/>
		
			<line fill="none" stroke="#DC3545" stroke-width="0.2" stroke-miterlimit="10" x1="307.83" y1="108.866" x2="318.224" y2="111.801"/>
		
			<line fill="none" stroke="#DC3545" stroke-width="0.2" stroke-miterlimit="10" x1="229.809" y1="113.313" x2="310.33" y2="160.646"/>
		
			<line fill="none" stroke="#DC3545" stroke-width="0.2" stroke-miterlimit="10" x1="229.809" y1="113.313" x2="297.301" y2="105.893"/>
		
			<line fill="none" stroke="#DC3545" stroke-width="0.2" stroke-miterlimit="10" x1="224.307" y1="207.102" x2="311.58" y2="199.23"/>
		
			<line fill="none" stroke="#DC3545" stroke-width="0.2" stroke-miterlimit="10" x1="229.809" y1="113.313" x2="224.307" y2="207.102"/>
		<line fill="none" stroke="#DC3545" stroke-width="0.2" stroke-miterlimit="10" x1="67.84" y1="148.854" x2="-7.67" y2="116.299"/>
		<line fill="none" stroke="#DC3545" stroke-width="0.2" stroke-miterlimit="10" x1="67.84" y1="148.854" x2="-5.42" y2="156.497"/>
		
			<line fill="none" stroke="#DC3545" stroke-width="0.2" stroke-miterlimit="10" x1="43.842" y1="212.789" x2="-9.42" y2="191.359"/>
		<line fill="none" stroke="#DC3545" stroke-width="0.2" stroke-miterlimit="10" x1="43.842" y1="212.789" x2="-9.42" y2="164.5"/>
		
			<line fill="none" stroke="#DC3545" stroke-width="0.2" stroke-miterlimit="10" x1="174.951" y1="102.664" x2="229.809" y2="113.313"/>
		
			<line fill="none" stroke="#DC3545" stroke-width="0.2" stroke-miterlimit="10" x1="174.951" y1="102.664" x2="154.055" y2="68.879"/>
		
			<line fill="none" stroke="#DC3545" stroke-width="0.2" stroke-miterlimit="10" x1="297.301" y1="105.893" x2="161.787" y2="191.359"/>
		<circle fill="#DC3545" cx="297.301" cy="105.893" r="0.855"/>
		<circle fill="#DC3545" cx="229.809" cy="113.313" r="0.855"/>
		<circle fill="#DC3545" cx="224.307" cy="207.102" r="0.855"/>
		<circle fill="#DC3545" cx="161.787" cy="191.359" r="0.855"/>
		<circle fill="#DC3545" cx="91.613" cy="208.854" r="0.855"/>
		<circle fill="#DC3545" cx="43.842" cy="212.788" r="0.855"/>
		<circle fill="#DC3545" cx="67.84" cy="148.893" r="0.855"/>
		<circle fill="#DC3545" cx="90.225" cy="64.15" r="0.855"/>
		<circle fill="#DC3545" cx="154.055" cy="68.879" r="0.855"/>
		<circle fill="#DC3545" cx="174.951" cy="102.663" r="0.855"/>
		<circle fill="#DC3545" cx="126.043" cy="129.934" r="0.855"/>
	</g>
</g>
<g id="Capa_5" display="none">
	<g display="inline">
		
			<line fill="none" stroke="#8CC63F" stroke-width="0.2" stroke-miterlimit="10" x1="129.603" y1="102.664" x2="142.767" y2="191.359"/>
		
			<line fill="none" stroke="#8CC63F" stroke-width="0.2" stroke-miterlimit="10" x1="142.767" y1="191.359" x2="178.511" y2="129.935"/>
		
			<line fill="none" stroke="#8CC63F" stroke-width="0.2" stroke-miterlimit="10" x1="178.511" y1="129.935" x2="212.94" y2="208.854"/>
		
			<line fill="none" stroke="#8CC63F" stroke-width="0.2" stroke-miterlimit="10" x1="212.94" y1="208.854" x2="236.714" y2="148.854"/>
		
			<line fill="none" stroke="#8CC63F" stroke-width="0.2" stroke-miterlimit="10" x1="236.714" y1="148.854" x2="260.712" y2="212.789"/>
		
			<line fill="none" stroke="#8CC63F" stroke-width="0.2" stroke-miterlimit="10" x1="236.714" y1="148.854" x2="150.499" y2="68.879"/>
		
			<line fill="none" stroke="#8CC63F" stroke-width="0.2" stroke-miterlimit="10" x1="214.329" y1="64.151" x2="236.714" y2="148.854"/>
		
			<line fill="none" stroke="#8CC63F" stroke-width="0.2" stroke-miterlimit="10" x1="214.329" y1="64.151" x2="150.499" y2="68.879"/>
		
			<line fill="none" stroke="#8CC63F" stroke-width="0.2" stroke-miterlimit="10" x1="214.329" y1="64.151" x2="129.603" y2="102.664"/>
		
			<line fill="none" stroke="#8CC63F" stroke-width="0.2" stroke-miterlimit="10" x1="214.329" y1="64.151" x2="178.511" y2="129.935"/>
		<line fill="none" stroke="#8CC63F" stroke-width="0.2" stroke-miterlimit="10" x1="214.329" y1="64.151" x2="318.224" y2="98.5"/>
		
			<line fill="none" stroke="#8CC63F" stroke-width="0.2" stroke-miterlimit="10" x1="178.511" y1="129.935" x2="236.714" y2="148.854"/>
		
			<line fill="none" stroke="#8CC63F" stroke-width="0.2" stroke-miterlimit="10" x1="178.511" y1="129.935" x2="74.745" y2="113.313"/>
		
			<line fill="none" stroke="#8CC63F" stroke-width="0.2" stroke-miterlimit="10" x1="129.603" y1="102.664" x2="178.511" y2="129.935"/>
		
			<line fill="none" stroke="#8CC63F" stroke-width="0.2" stroke-miterlimit="10" x1="129.603" y1="102.664" x2="80.247" y2="207.102"/>
		
			<line fill="none" stroke="#8CC63F" stroke-width="0.2" stroke-miterlimit="10" x1="80.247" y1="207.102" x2="142.767" y2="191.359"/>
		
			<line fill="none" stroke="#8CC63F" stroke-width="0.2" stroke-miterlimit="10" x1="142.767" y1="191.359" x2="212.94" y2="208.854"/>
		
			<line fill="none" stroke="#8CC63F" stroke-width="0.2" stroke-miterlimit="10" x1="212.94" y1="208.854" x2="260.712" y2="212.789"/>
		
			<line fill="none" stroke="#8CC63F" stroke-width="0.2" stroke-miterlimit="10" x1="80.247" y1="207.102" x2="7.253" y2="105.893"/>
		
			<line fill="none" stroke="#8CC63F" stroke-width="0.2" stroke-miterlimit="10" x1="7.253" y1="105.893" x2="-3.276" y2="108.866"/>
		
			<line fill="none" stroke="#8CC63F" stroke-width="0.2" stroke-miterlimit="10" x1="-3.276" y1="108.866" x2="-13.67" y2="111.801"/>
		
			<line fill="none" stroke="#8CC63F" stroke-width="0.2" stroke-miterlimit="10" x1="74.745" y1="113.313" x2="-5.776" y2="160.646"/>
		
			<line fill="none" stroke="#8CC63F" stroke-width="0.2" stroke-miterlimit="10" x1="74.745" y1="113.313" x2="7.253" y2="105.893"/>
		
			<line fill="none" stroke="#8CC63F" stroke-width="0.2" stroke-miterlimit="10" x1="80.247" y1="207.102" x2="-7.026" y2="199.23"/>
		
			<line fill="none" stroke="#8CC63F" stroke-width="0.2" stroke-miterlimit="10" x1="74.745" y1="113.313" x2="80.247" y2="207.102"/>
		
			<line fill="none" stroke="#8CC63F" stroke-width="0.2" stroke-miterlimit="10" x1="236.714" y1="148.854" x2="312.224" y2="116.299"/>
		
			<line fill="none" stroke="#8CC63F" stroke-width="0.2" stroke-miterlimit="10" x1="236.714" y1="148.854" x2="309.974" y2="156.497"/>
		
			<line fill="none" stroke="#8CC63F" stroke-width="0.2" stroke-miterlimit="10" x1="260.712" y1="212.789" x2="313.974" y2="191.359"/>
		
			<line fill="none" stroke="#8CC63F" stroke-width="0.2" stroke-miterlimit="10" x1="260.712" y1="212.789" x2="313.974" y2="164.5"/>
		
			<line fill="none" stroke="#8CC63F" stroke-width="0.2" stroke-miterlimit="10" x1="129.603" y1="102.664" x2="74.745" y2="113.313"/>
		
			<line fill="none" stroke="#8CC63F" stroke-width="0.2" stroke-miterlimit="10" x1="129.603" y1="102.664" x2="150.499" y2="68.879"/>
		
			<line fill="none" stroke="#8CC63F" stroke-width="0.2" stroke-miterlimit="10" x1="7.253" y1="105.893" x2="142.767" y2="191.359"/>
		<circle fill="#8CC63F" cx="7.253" cy="105.893" r="0.855"/>
		<circle fill="#8CC63F" cx="74.745" cy="113.313" r="0.855"/>
		<circle fill="#8CC63F" cx="80.247" cy="207.102" r="0.855"/>
		<circle fill="#8CC63F" cx="142.767" cy="191.359" r="0.855"/>
		<circle fill="#8CC63F" cx="212.94" cy="208.854" r="0.855"/>
		<circle fill="#8CC63F" cx="260.712" cy="212.788" r="0.855"/>
		<circle fill="#8CC63F" cx="236.714" cy="148.893" r="0.855"/>
		<circle fill="#8CC63F" cx="214.329" cy="64.15" r="0.855"/>
		<circle fill="#8CC63F" cx="150.499" cy="68.879" r="0.855"/>
		<circle fill="#8CC63F" cx="129.603" cy="102.663" r="0.855"/>
		<circle fill="#8CC63F" cx="178.511" cy="129.934" r="0.855"/>
	</g>
</g>
</svg>
