<?xml version="1.0" encoding="utf-8"?>
<!-- Generator: Adobe Illustrator 16.0.0, SVG Export Plug-In . SVG Version: 6.00 Build 0)  -->
<!DOCTYPE svg PUBLIC "-//W3C//DTD SVG 1.1//EN" "http://www.w3.org/Graphics/SVG/1.1/DTD/svg11.dtd">
<svg version="1.1" id="Capa_1" xmlns="http://www.w3.org/2000/svg" xmlns:xlink="http://www.w3.org/1999/xlink" x="0px" y="0px"
	 width="308.137px" height="245px" viewBox="0 0 308.137 245" enable-background="new 0 0 308.137 245" xml:space="preserve">
<g id="Capa_4" display="none">
	
		<line display="inline" fill="none" stroke="#20C997" stroke-width="0.2" stroke-miterlimit="10" x1="129.603" y1="102.664" x2="142.767" y2="191.359"/>
	
		<line display="inline" fill="none" stroke="#20C997" stroke-width="0.2" stroke-miterlimit="10" x1="142.767" y1="191.359" x2="178.512" y2="129.936"/>
	
		<line display="inline" fill="none" stroke="#20C997" stroke-width="0.2" stroke-miterlimit="10" x1="178.512" y1="129.936" x2="212.939" y2="208.854"/>
	
		<line display="inline" fill="none" stroke="#20C997" stroke-width="0.2" stroke-miterlimit="10" x1="212.939" y1="208.854" x2="236.714" y2="148.854"/>
	
		<line display="inline" fill="none" stroke="#20C997" stroke-width="0.2" stroke-miterlimit="10" x1="236.714" y1="148.854" x2="260.712" y2="212.789"/>
	
		<line display="inline" fill="none" stroke="#20C997" stroke-width="0.2" stroke-miterlimit="10" x1="236.714" y1="148.854" x2="150.499" y2="68.879"/>
	
		<line display="inline" fill="none" stroke="#20C997" stroke-width="0.2" stroke-miterlimit="10" x1="214.329" y1="64.151" x2="236.714" y2="148.854"/>
	
		<line display="inline" fill="none" stroke="#20C997" stroke-width="0.2" stroke-miterlimit="10" x1="214.329" y1="64.151" x2="150.499" y2="68.879"/>
	
		<line display="inline" fill="none" stroke="#20C997" stroke-width="0.2" stroke-miterlimit="10" x1="214.329" y1="64.151" x2="129.603" y2="102.664"/>
	
		<line display="inline" fill="none" stroke="#20C997" stroke-width="0.2" stroke-miterlimit="10" x1="214.329" y1="64.151" x2="178.512" y2="129.936"/>
	
		<line display="inline" fill="none" stroke="#20C997" stroke-width="0.2" stroke-miterlimit="10" x1="214.329" y1="64.151" x2="318.224" y2="98.5"/>
	
		<line display="inline" fill="none" stroke="#20C997" stroke-width="0.2" stroke-miterlimit="10" x1="178.512" y1="129.936" x2="236.714" y2="148.854"/>
	
		<line display="inline" fill="none" stroke="#20C997" stroke-width="0.2" stroke-miterlimit="10" x1="178.512" y1="129.936" x2="74.745" y2="113.313"/>
	
		<line display="inline" fill="none" stroke="#20C997" stroke-width="0.2" stroke-miterlimit="10" x1="129.603" y1="102.664" x2="178.512" y2="129.936"/>
	
		<line display="inline" fill="none" stroke="#20C997" stroke-width="0.2" stroke-miterlimit="10" x1="129.603" y1="102.664" x2="80.247" y2="207.102"/>
	
		<line display="inline" fill="none" stroke="#20C997" stroke-width="0.2" stroke-miterlimit="10" x1="80.247" y1="207.102" x2="142.767" y2="191.359"/>
	
		<line display="inline" fill="none" stroke="#20C997" stroke-width="0.2" stroke-miterlimit="10" x1="142.767" y1="191.359" x2="212.939" y2="208.854"/>
	
		<line display="inline" fill="none" stroke="#20C997" stroke-width="0.2" stroke-miterlimit="10" x1="212.939" y1="208.854" x2="260.712" y2="212.789"/>
	
		<line display="inline" fill="none" stroke="#20C997" stroke-width="0.2" stroke-miterlimit="10" x1="80.247" y1="207.102" x2="7.253" y2="105.893"/>
	
		<line display="inline" fill="none" stroke="#20C997" stroke-width="0.2" stroke-miterlimit="10" x1="7.253" y1="105.893" x2="-3.276" y2="108.866"/>
	
		<line display="inline" fill="none" stroke="#20C997" stroke-width="0.2" stroke-miterlimit="10" x1="-3.276" y1="108.866" x2="-13.67" y2="111.801"/>
	
		<line display="inline" fill="none" stroke="#20C997" stroke-width="0.2" stroke-miterlimit="10" x1="74.745" y1="113.313" x2="-5.776" y2="160.646"/>
	
		<line display="inline" fill="none" stroke="#20C997" stroke-width="0.2" stroke-miterlimit="10" x1="74.745" y1="113.313" x2="7.253" y2="105.893"/>
	
		<line display="inline" fill="none" stroke="#20C997" stroke-width="0.2" stroke-miterlimit="10" x1="80.247" y1="207.102" x2="-7.026" y2="199.23"/>
	
		<line display="inline" fill="none" stroke="#20C997" stroke-width="0.2" stroke-miterlimit="10" x1="74.745" y1="113.313" x2="80.247" y2="207.102"/>
	
		<line display="inline" fill="none" stroke="#20C997" stroke-width="0.2" stroke-miterlimit="10" x1="236.714" y1="148.854" x2="312.224" y2="116.299"/>
	
		<line display="inline" fill="none" stroke="#20C997" stroke-width="0.2" stroke-miterlimit="10" x1="236.714" y1="148.854" x2="309.974" y2="156.497"/>
	
		<line display="inline" fill="none" stroke="#20C997" stroke-width="0.2" stroke-miterlimit="10" x1="260.712" y1="212.789" x2="313.974" y2="191.359"/>
	
		<line display="inline" fill="none" stroke="#20C997" stroke-width="0.2" stroke-miterlimit="10" x1="260.712" y1="212.789" x2="313.974" y2="164.5"/>
	
		<line display="inline" fill="none" stroke="#20C997" stroke-width="0.2" stroke-miterlimit="10" x1="129.603" y1="102.664" x2="74.745" y2="113.313"/>
	
		<line display="inline" fill="none" stroke="#20C997" stroke-width="0.2" stroke-miterlimit="10" x1="129.603" y1="102.664" x2="150.499" y2="68.879"/>
	
		<line display="inline" fill="none" stroke="#20C997" stroke-width="0.2" stroke-miterlimit="10" x1="7.253" y1="105.893" x2="142.767" y2="191.359"/>
	<circle display="inline" fill="#20C997" cx="7.253" cy="105.893" r="0.855"/>
	<circle display="inline" fill="#20C997" cx="74.745" cy="113.313" r="0.855"/>
	<circle display="inline" fill="#20C997" cx="80.247" cy="207.102" r="0.855"/>
	<circle display="inline" fill="#20C997" cx="142.767" cy="191.359" r="0.855"/>
	<circle display="inline" fill="#20C997" cx="212.939" cy="208.854" r="0.855"/>
	<circle display="inline" fill="#20C997" cx="260.712" cy="212.788" r="0.854"/>
	<circle display="inline" fill="#20C997" cx="236.714" cy="148.893" r="0.855"/>
	<circle display="inline" fill="#20C997" cx="214.329" cy="64.15" r="0.855"/>
	<circle display="inline" fill="#20C997" cx="150.499" cy="68.879" r="0.855"/>
	<circle display="inline" fill="#20C997" cx="129.603" cy="102.663" r="0.855"/>
	<circle display="inline" fill="#20C997" cx="178.512" cy="129.934" r="0.855"/>
</g>
<g id="Capa_2" display="none">
	
		<line display="inline" fill="none" stroke="#DC3545" stroke-width="0.2" stroke-miterlimit="10" x1="129.603" y1="102.664" x2="142.767" y2="191.359"/>
	
		<line display="inline" fill="none" stroke="#DC3545" stroke-width="0.2" stroke-miterlimit="10" x1="142.767" y1="191.359" x2="178.512" y2="129.936"/>
	
		<line display="inline" fill="none" stroke="#DC3545" stroke-width="0.2" stroke-miterlimit="10" x1="178.512" y1="129.936" x2="212.939" y2="208.854"/>
	
		<line display="inline" fill="none" stroke="#DC3545" stroke-width="0.2" stroke-miterlimit="10" x1="212.939" y1="208.854" x2="236.714" y2="148.854"/>
	
		<line display="inline" fill="none" stroke="#DC3545" stroke-width="0.2" stroke-miterlimit="10" x1="236.714" y1="148.854" x2="260.712" y2="212.789"/>
	
		<line display="inline" fill="none" stroke="#DC3545" stroke-width="0.2" stroke-miterlimit="10" x1="236.714" y1="148.854" x2="150.499" y2="68.879"/>
	
		<line display="inline" fill="none" stroke="#DC3545" stroke-width="0.2" stroke-miterlimit="10" x1="214.329" y1="64.151" x2="236.714" y2="148.854"/>
	
		<line display="inline" fill="none" stroke="#DC3545" stroke-width="0.2" stroke-miterlimit="10" x1="214.329" y1="64.151" x2="150.499" y2="68.879"/>
	
		<line display="inline" fill="none" stroke="#DC3545" stroke-width="0.2" stroke-miterlimit="10" x1="214.329" y1="64.151" x2="129.603" y2="102.664"/>
	
		<line display="inline" fill="none" stroke="#DC3545" stroke-width="0.2" stroke-miterlimit="10" x1="214.329" y1="64.151" x2="178.512" y2="129.936"/>
	
		<line display="inline" fill="none" stroke="#DC3545" stroke-width="0.2" stroke-miterlimit="10" x1="214.329" y1="64.151" x2="318.224" y2="98.5"/>
	
		<line display="inline" fill="none" stroke="#DC3545" stroke-width="0.2" stroke-miterlimit="10" x1="178.512" y1="129.936" x2="236.714" y2="148.854"/>
	
		<line display="inline" fill="none" stroke="#DC3545" stroke-width="0.2" stroke-miterlimit="10" x1="178.512" y1="129.936" x2="74.745" y2="113.313"/>
	
		<line display="inline" fill="none" stroke="#DC3545" stroke-width="0.2" stroke-miterlimit="10" x1="129.603" y1="102.664" x2="178.512" y2="129.936"/>
	
		<line display="inline" fill="none" stroke="#DC3545" stroke-width="0.2" stroke-miterlimit="10" x1="129.603" y1="102.664" x2="80.247" y2="207.102"/>
	
		<line display="inline" fill="none" stroke="#DC3545" stroke-width="0.2" stroke-miterlimit="10" x1="80.247" y1="207.102" x2="142.767" y2="191.359"/>
	
		<line display="inline" fill="none" stroke="#DC3545" stroke-width="0.2" stroke-miterlimit="10" x1="142.767" y1="191.359" x2="212.939" y2="208.854"/>
	
		<line display="inline" fill="none" stroke="#DC3545" stroke-width="0.2" stroke-miterlimit="10" x1="212.939" y1="208.854" x2="260.712" y2="212.789"/>
	
		<line display="inline" fill="none" stroke="#DC3545" stroke-width="0.2" stroke-miterlimit="10" x1="80.247" y1="207.102" x2="7.253" y2="105.893"/>
	
		<line display="inline" fill="none" stroke="#DC3545" stroke-width="0.2" stroke-miterlimit="10" x1="7.253" y1="105.893" x2="-3.276" y2="108.866"/>
	
		<line display="inline" fill="none" stroke="#DC3545" stroke-width="0.2" stroke-miterlimit="10" x1="-3.276" y1="108.866" x2="-13.67" y2="111.801"/>
	
		<line display="inline" fill="none" stroke="#DC3545" stroke-width="0.2" stroke-miterlimit="10" x1="74.745" y1="113.313" x2="-5.776" y2="160.646"/>
	
		<line display="inline" fill="none" stroke="#DC3545" stroke-width="0.2" stroke-miterlimit="10" x1="74.745" y1="113.313" x2="7.253" y2="105.893"/>
	
		<line display="inline" fill="none" stroke="#DC3545" stroke-width="0.2" stroke-miterlimit="10" x1="80.247" y1="207.102" x2="-7.026" y2="199.23"/>
	
		<line display="inline" fill="none" stroke="#DC3545" stroke-width="0.2" stroke-miterlimit="10" x1="74.745" y1="113.313" x2="80.247" y2="207.102"/>
	
		<line display="inline" fill="none" stroke="#DC3545" stroke-width="0.2" stroke-miterlimit="10" x1="236.714" y1="148.854" x2="312.224" y2="116.299"/>
	
		<line display="inline" fill="none" stroke="#DC3545" stroke-width="0.2" stroke-miterlimit="10" x1="236.714" y1="148.854" x2="309.974" y2="156.497"/>
	
		<line display="inline" fill="none" stroke="#DC3545" stroke-width="0.2" stroke-miterlimit="10" x1="260.712" y1="212.789" x2="313.974" y2="191.359"/>
	
		<line display="inline" fill="none" stroke="#DC3545" stroke-width="0.2" stroke-miterlimit="10" x1="260.712" y1="212.789" x2="313.974" y2="164.5"/>
	
		<line display="inline" fill="none" stroke="#DC3545" stroke-width="0.2" stroke-miterlimit="10" x1="129.603" y1="102.664" x2="74.745" y2="113.313"/>
	
		<line display="inline" fill="none" stroke="#DC3545" stroke-width="0.2" stroke-miterlimit="10" x1="129.603" y1="102.664" x2="150.499" y2="68.879"/>
	
		<line display="inline" fill="none" stroke="#DC3545" stroke-width="0.2" stroke-miterlimit="10" x1="7.253" y1="105.893" x2="142.767" y2="191.359"/>
	<circle display="inline" fill="#DC3545" cx="7.253" cy="105.893" r="0.855"/>
	<circle display="inline" fill="#DC3545" cx="74.745" cy="113.313" r="0.855"/>
	<circle display="inline" fill="#DC3545" cx="80.247" cy="207.102" r="0.855"/>
	<circle display="inline" fill="#DC3545" cx="142.767" cy="191.359" r="0.855"/>
	<circle display="inline" fill="#DC3545" cx="212.939" cy="208.854" r="0.855"/>
	<circle display="inline" fill="#DC3545" cx="260.712" cy="212.788" r="0.854"/>
	<circle display="inline" fill="#DC3545" cx="236.714" cy="148.893" r="0.855"/>
	<circle display="inline" fill="#DC3545" cx="214.329" cy="64.15" r="0.855"/>
	<circle display="inline" fill="#DC3545" cx="150.499" cy="68.879" r="0.855"/>
	<circle display="inline" fill="#DC3545" cx="129.603" cy="102.663" r="0.855"/>
	<circle display="inline" fill="#DC3545" cx="178.512" cy="129.934" r="0.855"/>
</g>
<g id="Capa_5">
	<g>
		
			<line fill="none" stroke="#8CC63F" stroke-width="0.2" stroke-miterlimit="10" x1="168.959" y1="202.216" x2="138.069" y2="122.553"/>
		
			<line fill="none" stroke="#8CC63F" stroke-width="0.2" stroke-miterlimit="10" x1="104.036" y1="147.147" x2="168.959" y2="202.216"/>
		
			<line fill="none" stroke="#8CC63F" stroke-width="0.2" stroke-miterlimit="10" x1="102.394" y1="230.484" x2="104.036" y2="147.147"/>
		
			<line fill="none" stroke="#8CC63F" stroke-width="0.2" stroke-miterlimit="10" x1="49.515" y1="144.948" x2="102.394" y2="230.484"/>
		
			<line fill="none" stroke="#8CC63F" stroke-width="0.2" stroke-miterlimit="10" x1="55.827" y1="241.854" x2="49.515" y2="144.948"/>
		<line fill="none" stroke="#8CC63F" stroke-width="0.2" stroke-miterlimit="10" x1="72.14" y1="72.457" x2="49.515" y2="144.948"/>
		
			<line fill="none" stroke="#8CC63F" stroke-width="0.2" stroke-miterlimit="10" x1="49.515" y1="144.948" x2="28.357" y2="107.785"/>
		<line fill="none" stroke="#8CC63F" stroke-width="0.2" stroke-miterlimit="10" x1="72.14" y1="72.457" x2="28.357" y2="107.785"/>
		
			<line fill="none" stroke="#8CC63F" stroke-width="0.2" stroke-miterlimit="10" x1="138.069" y1="122.553" x2="28.357" y2="107.785"/>
		
			<line fill="none" stroke="#8CC63F" stroke-width="0.2" stroke-miterlimit="10" x1="104.036" y1="147.147" x2="28.357" y2="107.785"/>
		
			<line fill="none" stroke="#8CC63F" stroke-width="0.2" stroke-miterlimit="10" x1="-18.875" y1="117.982" x2="28.357" y2="107.785"/>
		
			<line fill="none" stroke="#8CC63F" stroke-width="0.2" stroke-miterlimit="10" x1="49.515" y1="144.948" x2="104.036" y2="147.147"/>
		
			<line fill="none" stroke="#8CC63F" stroke-width="0.2" stroke-miterlimit="10" x1="213.919" y1="134.478" x2="104.036" y2="147.147"/>
		
			<line fill="none" stroke="#8CC63F" stroke-width="0.2" stroke-miterlimit="10" x1="104.036" y1="147.147" x2="138.069" y2="122.553"/>
		
			<line fill="none" stroke="#8CC63F" stroke-width="0.2" stroke-miterlimit="10" x1="233.174" y1="207.971" x2="138.069" y2="122.553"/>
		
			<line fill="none" stroke="#8CC63F" stroke-width="0.2" stroke-miterlimit="10" x1="168.959" y1="202.216" x2="233.174" y2="207.971"/>
		
			<line fill="none" stroke="#8CC63F" stroke-width="0.2" stroke-miterlimit="10" x1="102.394" y1="230.484" x2="168.959" y2="202.216"/>
		
			<line fill="none" stroke="#8CC63F" stroke-width="0.2" stroke-miterlimit="10" x1="55.827" y1="241.854" x2="102.394" y2="230.484"/>
		
			<line fill="none" stroke="#8CC63F" stroke-width="0.2" stroke-miterlimit="10" x1="289.415" y1="96.578" x2="233.174" y2="207.971"/>
		
			<line fill="none" stroke="#8CC63F" stroke-width="0.2" stroke-miterlimit="10" x1="300.28" y1="97.867" x2="289.415" y2="96.578"/>
		
			<line fill="none" stroke="#8CC63F" stroke-width="0.2" stroke-miterlimit="10" x1="311.006" y1="99.137" x2="300.28" y2="97.867"/>
		
			<line fill="none" stroke="#8CC63F" stroke-width="0.2" stroke-miterlimit="10" x1="310.859" y1="148.615" x2="213.919" y2="134.478"/>
		
			<line fill="none" stroke="#8CC63F" stroke-width="0.2" stroke-miterlimit="10" x1="289.415" y1="96.578" x2="213.919" y2="134.478"/>
		
			<line fill="none" stroke="#8CC63F" stroke-width="0.2" stroke-miterlimit="10" x1="318.137" y1="186.528" x2="233.174" y2="207.971"/>
		
			<line fill="none" stroke="#8CC63F" stroke-width="0.2" stroke-miterlimit="10" x1="233.174" y1="207.971" x2="213.919" y2="134.478"/>
		
			<line fill="none" stroke="#8CC63F" stroke-width="0.2" stroke-miterlimit="10" x1="-10.162" y1="154.622" x2="49.515" y2="144.948"/>
		
			<line fill="none" stroke="#8CC63F" stroke-width="0.2" stroke-miterlimit="10" x1="-1.643" y1="193.973" x2="49.515" y2="144.948"/>
		
			<line fill="none" stroke="#8CC63F" stroke-width="0.2" stroke-miterlimit="10" x1="-0.134" y1="229.03" x2="55.827" y2="241.854"/>
		
			<line fill="none" stroke="#8CC63F" stroke-width="0.2" stroke-miterlimit="10" x1="-4.34" y1="202.502" x2="55.827" y2="241.854"/>
		
			<line fill="none" stroke="#8CC63F" stroke-width="0.2" stroke-miterlimit="10" x1="213.919" y1="134.478" x2="138.069" y2="122.553"/>
		
			<line fill="none" stroke="#8CC63F" stroke-width="0.2" stroke-miterlimit="10" x1="72.14" y1="72.457" x2="138.069" y2="122.553"/>
		
			<line fill="none" stroke="#8CC63F" stroke-width="0.2" stroke-miterlimit="10" x1="168.959" y1="202.216" x2="289.415" y2="96.578"/>
		<circle fill="#8CC63F" cx="289.416" cy="96.579" r="0.856"/>
		<circle fill="#8CC63F" cx="213.918" cy="134.478" r="0.855"/>
		<circle fill="#8CC63F" cx="233.174" cy="207.971" r="0.856"/>
		<circle fill="#8CC63F" cx="168.96" cy="202.215" r="0.856"/>
		<circle fill="#8CC63F" cx="102.394" cy="230.484" r="0.856"/>
		<circle fill="#8CC63F" cx="55.827" cy="241.853" r="0.854"/>
		<circle fill="#8CC63F" cx="49.521" cy="144.987" r="0.853"/>
		<circle fill="#8CC63F" cx="28.357" cy="107.785" r="0.853"/>
		<circle fill="#8CC63F" cx="72.14" cy="72.457" r="0.855"/>
		<circle fill="#8CC63F" cx="138.069" cy="122.552" r="0.855"/>
		<circle fill="#8CC63F" cx="104.036" cy="147.146" r="0.856"/>
	</g>
</g>
</svg>
