<?xml version="1.0" encoding="utf-8"?>
<!-- Generator: Adobe Illustrator 16.0.0, SVG Export Plug-In . SVG Version: 6.00 Build 0)  -->
<!DOCTYPE svg PUBLIC "-//W3C//DTD SVG 1.1//EN" "http://www.w3.org/Graphics/SVG/1.1/DTD/svg11.dtd">
<svg version="1.1" id="Layer_1" xmlns="http://www.w3.org/2000/svg" xmlns:xlink="http://www.w3.org/1999/xlink" x="0px" y="0px"
	 width="50px" height="50px" viewBox="-13 -13 50 50" enable-background="new -13 -13 50 50" xml:space="preserve">
<path fill="#0C1D30" d="M33.308,13.841C31.189,3.746,23.058-2.32,14.37-3.26v-1.326c0-1.311-1.06-2.37-2.37-2.37
	c-1.312,0-2.37,1.059-2.37,2.37v1.326C0.913-2.32-7.146,3.746-9.309,13.841c-0.162,0.748,0.63,1.577,1.386,0.844
	c3.851-4.073,7.977-3.88,11.746,2.741c0.393,0.703,1.104,0.637,1.459,0c1.496-2.622,3.326-5.422,6.718-5.422
	c4.332,0,6.532,5.096,6.718,5.422c0.355,0.637,1.066,0.703,1.458,0c3.777-6.629,7.933-6.77,11.747-2.741
	C32.686,15.426,33.471,14.589,33.308,13.841z M9.63,15.389v9.65c0,0.651-0.533,1.185-1.186,1.185c-0.577,0-0.978-0.393-1.118-0.792
	c-0.437-1.237-1.784-1.881-3.021-1.444c-1.236,0.438-1.881,1.792-1.444,3.022c0.83,2.362,3.081,3.946,5.584,3.946
	c3.267,0,5.926-2.658,5.926-5.924v-9.65c-0.674-0.586-1.467-1.008-2.37-1.008C11.089,14.382,10.341,14.729,9.63,15.389z"/>
</svg>
